<svg width="50" height="50" viewBox="0 0 50 50" fill="none" xmlns="http://www.w3.org/2000/svg">
    <path
        d="M40.3226 25.4032C39.133 25.4032 37.9726 25.6193 36.8726 26.0395L39.1371 29.5621C39.5193 29.4806 39.9153 29.4355 40.3226 29.4355C43.4403 29.4355 45.9677 31.9629 45.9677 35.0806C45.9677 38.1984 43.4403 40.7258 40.3226 40.7258C37.2048 40.7258 34.6774 38.1984 34.6774 35.0806C34.6774 33.5806 35.2669 32.2209 36.2209 31.2097L34.0387 27.8153L33.6798 28.0427C31.7516 29.8629 30.6451 32.429 30.6451 35.0806C30.6451 40.4169 34.9863 44.758 40.3226 44.758C45.6588 44.758 50 40.4169 50 35.0806C50 29.7443 45.6588 25.4032 40.3226 25.4032Z"
        fill="#B71C1C" />
    <path
        d="M13.7145 26.283L13.4105 26.2169L12.7944 30.3758C14.3169 31.3863 15.3226 33.1153 15.3226 35.0806C15.3226 38.1984 12.7952 40.7258 9.67742 40.7258C6.55968 40.7258 4.03226 38.1984 4.03226 35.0806C4.03226 32.0548 6.41532 29.5919 9.40645 29.4492L10.0669 25.4879L9.67742 25.4032C4.34113 25.4032 0 29.7443 0 35.0806C0 40.4169 4.34113 44.758 9.67742 44.758C15.0137 44.758 19.3548 40.4169 19.3548 35.0806C19.3548 31.3105 17.1411 27.8572 13.7145 26.283Z"
        fill="#B71C1C" />
    <path
        d="M40.3226 28.629C40.0581 28.629 39.7936 28.6532 39.5315 28.6855L34.8299 21.371H35.4839C36.8178 21.371 37.9032 20.2855 37.9032 18.9516C37.9032 17.6177 36.8178 16.5323 35.4839 16.5323H27.4194C26.0855 16.5323 25 17.6177 25 18.9516C25 20.2855 26.0855 21.371 27.4194 21.371H28.5339L24.779 28.8807L15.2436 19.3452L16.05 13.9008C16.4169 13.5121 16.6831 13.0331 16.821 12.5H24.1936C25.5274 12.5 26.6129 11.4145 26.6129 10.0807C26.6129 8.74678 25.5274 7.6613 24.1936 7.6613H15.821C15.254 7.16533 14.521 6.85485 13.7097 6.85485C13.3169 6.85485 12.9331 6.92743 12.5726 7.06291C12.0484 5.98791 10.9516 5.24194 9.67743 5.24194C9.10888 5.24194 8.55324 5.39517 8.06453 5.68227C7.57582 5.39517 7.02017 5.24194 6.45163 5.24194C4.80001 5.24194 3.43469 6.48952 3.24759 8.09114C2.25082 8.65646 1.61292 9.71936 1.61292 10.8871C1.61292 12.3863 2.64437 13.6379 4.03227 13.9984V18.1452C4.03227 20.3686 5.84114 22.1774 8.06453 22.1774C8.71937 22.1774 9.32824 22.0057 9.87582 21.7282L8.71211 28.7097C5.61211 29.1774 3.22582 31.8524 3.22582 35.0807C3.22582 38.6379 6.12017 41.5323 9.67743 41.5323C13.2347 41.5323 16.129 38.6379 16.129 35.0807C16.129 33.1008 15.2081 31.2419 13.6613 30.021L14.3242 25.546L20.7468 31.9686C20.3734 32.654 20.1613 33.4395 20.1613 34.2742C20.1613 36.6669 21.9089 38.654 24.1936 39.0403V39.9194C24.1936 40.3645 23.8323 40.7258 23.3871 40.7258H20.1613V42.3387H23.3871C24.721 42.3387 25.8065 41.2532 25.8065 39.9194V39.0403C28.0911 38.6548 29.8387 36.6677 29.8387 34.2742C29.8387 33.371 29.5855 32.5282 29.1532 31.804L31.9936 26.1242L35.2194 31.1419C34.3476 32.2661 33.871 33.6379 33.871 35.0807C33.871 38.6379 36.7653 41.5323 40.3226 41.5323C43.8799 41.5323 46.7742 38.6379 46.7742 35.0807C46.7742 31.5234 43.8799 28.629 40.3226 28.629ZM38.3758 35.8871L36.3831 37.8798C35.9678 37.2976 35.6807 36.6202 35.5565 35.8871H38.3758ZM39.5161 37.0274V39.8468C38.7831 39.7226 38.1057 39.4355 37.5234 39.0202L39.5161 37.0274ZM41.129 37.0274L43.1218 39.0202C42.5395 39.4355 41.8621 39.7226 41.129 39.8468V37.0274ZM42.2694 35.8871H45.0887C44.9645 36.6202 44.6774 37.2976 44.2621 37.8798L42.2694 35.8871ZM42.2694 34.2742L44.2621 32.2815C44.6774 32.8637 44.9645 33.5411 45.0887 34.2742H42.2694ZM43.1218 31.1411L41.8315 32.4315C41.7686 32.2234 41.6774 32.0242 41.5581 31.8387L40.5387 30.2532C41.4992 30.296 42.3863 30.6169 43.1218 31.1411ZM26.6129 18.9516C26.6129 18.5065 26.9742 18.1452 27.4194 18.1452H35.4839C35.929 18.1452 36.2903 18.5065 36.2903 18.9516C36.2903 19.3968 35.929 19.7581 35.4839 19.7581H27.4194C26.9742 19.7581 26.6129 19.3968 26.6129 18.9516ZM32.5661 21.371L28.0065 30.4895C27.4879 30.0766 26.8831 29.771 26.2234 29.5984L30.3371 21.371H32.5661ZM25 10.0807C25 10.5258 24.6387 10.8871 24.1936 10.8871H16.9355V10.0807C16.9355 9.80081 16.8887 9.53307 16.821 9.2742H24.1936C24.6387 9.2742 25 9.63549 25 10.0807ZM15.3226 10.0807V11.6936C15.3226 12.5823 14.5984 13.3065 13.7097 13.3065C13.6169 13.3065 13.5266 13.2928 13.4371 13.2774C14.0944 12.6863 14.5161 11.8387 14.5161 10.8871C14.5161 9.95323 14.104 9.09194 13.4307 8.49356C13.5226 8.47743 13.6153 8.46775 13.7097 8.46775C14.5984 8.46775 15.3226 9.19114 15.3226 10.0807ZM4.83872 12.5C3.94921 12.5 3.22582 11.7758 3.22582 10.8871C3.22582 10.2073 3.66211 9.59839 4.31211 9.37259L4.88146 9.1742L4.85243 8.57178C4.85001 8.52581 4.84437 8.48227 4.83872 8.46775C4.83872 7.57823 5.56211 6.85485 6.45163 6.85485C6.84275 6.85485 7.2234 7.00404 7.52501 7.27501L8.06453 7.7613L8.60404 7.27581C8.90566 7.00404 9.2863 6.85485 9.67743 6.85485C10.5661 6.85485 11.2903 7.57823 11.2903 8.4371L11.2476 9.1742L11.8169 9.37259C12.4669 9.59839 12.9032 10.2073 12.9032 10.8871C12.9032 11.7758 12.179 12.5 11.2903 12.5H4.83872ZM8.06453 20.5645C6.73066 20.5645 5.64517 19.479 5.64517 18.1452V14.1129H10.4839V18.079L10.3419 18.9298C10.0145 19.8774 9.12259 20.5645 8.06453 20.5645ZM11.9234 19.2492C12.0097 18.9484 12.0661 18.6371 12.0799 18.3129L12.6766 14.7315C13.0081 14.8436 13.3524 14.9194 13.7097 14.9194C13.904 14.9194 14.0919 14.8952 14.2766 14.8621L11.5178 33.4847C11.45 33.9419 11.0653 34.2742 10.6024 34.2742C10.0928 34.2742 9.67743 33.8589 9.67743 33.3484V32.804C9.67743 32.7532 9.68146 32.7024 9.69033 32.6516L11.9234 19.2492ZM7.73066 34.2742H4.9113C5.0355 33.5411 5.32259 32.8637 5.73792 32.2815L7.73066 34.2742ZM7.73066 35.8871L5.73792 37.8798C5.32259 37.2976 5.0355 36.6202 4.9113 35.8871H7.73066ZM8.87098 37.0274V39.8468C8.13792 39.7226 7.4605 39.4355 6.87824 39.0202L8.87098 37.0274ZM10.4839 37.0274L12.4766 39.0202C11.8944 39.4355 11.2169 39.7226 10.4839 39.8468V37.0274ZM11.6242 35.8871H14.4436C14.3194 36.6202 14.0323 37.2976 13.6169 37.8798L11.6242 35.8871ZM8.10243 32.3653L6.87743 31.1403C7.34033 30.8105 7.86372 30.5613 8.42743 30.4105L8.10243 32.3653ZM14.4403 34.2742H12.9573C13.0274 34.0976 13.0855 33.9145 13.1145 33.7202L13.3742 31.9653C13.9282 32.6242 14.2952 33.421 14.4403 34.2742ZM14.9492 21.3315L23.35 29.7323C22.7549 29.9492 22.2161 30.2782 21.7557 30.696L14.6194 23.5597L14.9492 21.3315ZM25.8065 37.3855V34.2742H24.1936V37.3855C22.8057 37.025 21.7742 35.7734 21.7742 34.2742C21.7742 32.4952 23.221 31.0484 25 31.0484C26.779 31.0484 28.2258 32.4952 28.2258 34.2742C28.2258 35.7734 27.1944 37.025 25.8065 37.3855ZM33.7323 22.646L40.2016 32.7105C40.2807 32.8339 40.3226 32.9758 40.3226 33.121V33.5153C40.3226 33.9331 39.9823 34.2734 39.5645 34.2734C39.3057 34.2734 39.067 34.1428 38.9258 33.9242L32.8323 24.4452L33.7323 22.646ZM37.2323 34.2742H35.5549C35.6532 33.6847 35.8605 33.1242 36.1645 32.6137L37.2323 34.2742Z"
        fill="black" />
    <path d="M7.25804 9.27423H5.64514V10.8871H7.25804V9.27423Z" fill="black" />
    <path d="M11.2904 10.0806H9.67749V11.6935H11.2904V10.0806Z" fill="black" />
</svg>
