<svg width="48" height="48" viewBox="0 0 48 48" fill="none" xmlns="http://www.w3.org/2000/svg">
    <g clip-path="url(#clip0_150_34)">
        <path d="M23.0662 15.7264H4.61328V6.49988H23.0662V15.7264Z" fill="#B71C1C" />
        <path d="M4.61328 18.033H23.0662V21.8773H4.61328V18.033Z" fill="#B71C1C" />
        <path d="M36.9061 22.1956L29.6678 14.9574L35.3683 9.25732L42.6065 16.4952L36.9061 22.1956Z"
            fill="#B71C1C" />
        <path d="M3.07556 26.4906H4.61331V28.0283H3.07556V26.4906Z" fill="black" />
        <path d="M6.151 26.4906H7.68875V28.0283H6.151V26.4906Z" fill="black" />
        <path d="M9.22644 26.4906H10.7642V28.0283H9.22644V26.4906Z" fill="black" />
        <path
            d="M48.0001 16.5061L31.5347 0.0413818L26.1417 5.22602V0.348856H1.53775V24.2042C0.609692 24.9063 0 26.0085 0 27.2594V44.1746C0 46.2947 1.72471 48.019 3.84436 48.019H31.5238C33.6434 48.019 35.3682 46.2947 35.3682 44.1746V28.7972C35.3682 28.7521 35.3565 28.7097 35.3543 28.6643L48.0001 16.5061ZM31.5129 2.19445L45.8024 16.4839L34.8891 26.9782C34.2377 25.7787 32.9816 24.9528 31.5238 24.9528H26.1417V7.35957L31.5129 2.19445ZM3.07549 1.8866H24.6039V24.9528H13.3892L12.9777 24.541C12.252 23.8149 11.2864 23.4151 10.2589 23.4151H3.84436C3.58157 23.4151 3.32402 23.4421 3.07549 23.4928V1.8866ZM3.84436 24.9528H10.2589C10.8757 24.9528 11.4554 25.1927 11.8905 25.6282L12.7525 26.4906H31.5238C32.7954 26.4906 33.8304 27.5256 33.8304 28.7972V29.566H1.53775V27.2594C1.53775 25.9879 2.5728 24.9528 3.84436 24.9528V24.9528ZM33.8304 31.1038V32.6415H1.53775V31.1038H33.8304ZM31.5238 46.4813H3.84436C2.5728 46.4813 1.53775 45.4466 1.53775 44.1746V34.1793H33.8304V44.1746C33.8304 45.4466 32.7954 46.4813 31.5238 46.4813Z"
            fill="black" />
        <path d="M21.5284 3.42444H23.0662V4.96219H21.5284V3.42444Z" fill="black" />
        <path d="M4.61328 3.42444H19.9908V4.96219H4.61328V3.42444Z" fill="black" />
        <path d="M4.61328 17.264H23.0662V18.8018H4.61328V17.264Z" fill="black" />
        <path d="M4.61328 20.3396H19.9908V21.8773H4.61328V20.3396Z" fill="black" />
        <path d="M21.5284 20.3396H23.0662V21.8773H21.5284V20.3396Z" fill="black" />
        <path d="M29.4424 6.27535L30.5296 5.18774L33.6051 8.26361L32.5179 9.35085L29.4424 6.27535Z"
            fill="black" />
        <path d="M27.1359 8.582L28.2231 7.49438L31.2986 10.5703L30.2113 11.6575L27.1359 8.582Z"
            fill="black" />
        <path d="M27.1355 17.0393L28.2227 15.952L35.1426 22.8719L34.0553 23.9591L27.1355 17.0393Z"
            fill="black" />
    </g>
    <defs>
        <clipPath id="clip0_150_34">
            <rect width="48" height="48" fill="white" />
        </clipPath>
    </defs>
</svg>
