<svg height="999" width="1000" xmlns="http://www.w3.org/2000/svg">
    <g transform="translate(-55.5 -1002.3452)">
        <path
            d="m55.5 1002.3454h997.5168v538.4893l-49.3744 77.1475 49.3744 68.6613v313.2187h-997.5168v-507.6304l30.858989-35.4878-30.858989-33.9449z"
            fill="none" />
        <path
            d="m249.14015 1697.4441v-156.6094h165.82027l17.79072 23.1924 18.37901-23.1924h601.88665v145.8088s-15.7404 10.644-33.9449 10.8006h-333.27706l-20.05834-24.6872v24.6872h-65.72965v-42.1418s-8.97877 5.8825-28.39026 5.8825h-22.37277v36.2593h-99.52024l-17.7653-23.6898-18.03807 23.6898z"
            fill="#fff" />
        <path
            d="m55.5 1422.7991 37.393125-87.1766h64.667505l21.22103 48.8328v-48.8328h80.38767l12.63289 35.2949 12.24716-35.2949h360.8573v17.7439s18.96995-17.7439 50.14586-17.7439l117.08499.4092 20.85469 48.1937v-48.6029h67.27259l18.5154 27.6834v-27.6834h67.88977v156.6093h-67.88977l-17.74392-27.7731v27.7731h-98.83835l-9.93959-24.6872h-26.57108l-9.77781 24.6872h-67.02872c-26.82589 0-43.97406-17.3816-43.97406-17.3816v17.3816h-101.06318l-20.05835-24.6872v24.6872h-375.80462l-9.93274-24.6872h-26.48635l-9.86254 24.6872h-46.1989z"
            fill="#fff" />
        <g fill="#016fd0">
            <path
                d="m106.12803 1354.9291-50.435161 117.2641h32.835892l9.305914-23.4816h54.099665l9.2577 23.4816h33.55915l-50.38695-117.2641zm18.66004 27.2909 16.49028 41.0329h-33.02877z" />
            <path
                d="m198.22282 1472.1735v-117.2642l46.66163.1733 27.13999 75.6045 26.4901-75.7778h46.28848v117.2642h-29.31604v-86.4052l-31.07562 86.4052h-25.71023l-31.16227-86.4052v86.4052z" />
            <path
                d="m364.86136 1472.1735v-117.2642h95.66287v26.2302h-66.03824v20.0583h64.49529v24.6872h-64.49529v20.8298h66.03824v25.4587z" />
            <path
                d="m477.49667 1354.9291v117.2641h29.31604v-41.6596h12.34359l35.15032 41.6596h35.82536l-38.57374-43.2025c15.8309-1.3359 32.16085-14.9233 32.16085-36.0182 0-24.6765-19.36827-38.0434-40.98459-38.0434zm29.31604 26.2301h33.51093c8.03881 0 13.88655 6.2882 13.88655 12.3436 0 7.7905-7.57673 12.3436-13.45259 12.3436h-33.94489z" />
            <path d="m625.61982 1472.1735h-29.93322v-117.2642h29.93322z" />
            <path
                d="m696.59549 1472.1735h-6.4611c-31.26172 0-50.24229-24.6292-50.24229-58.1499 0-34.3488 18.76806-59.1143 58.24634-59.1143h32.40194v27.7731h-33.58657c-16.026 0-27.35994 12.5067-27.35994 31.6305 0 22.7096 12.95987 32.2476 31.63047 32.2476h7.71474z" />
            <path
                d="m760.3868 1354.9291-50.43515 117.2641h32.83589l9.30591-23.4816h54.09967l9.25769 23.4816h33.55915l-50.38694-117.2641zm18.66005 27.2909 16.49027 41.0329h-33.02876z" />
            <path
                d="m852.43338 1472.1735v-117.2642h37.27187l47.59035 73.6759v-73.6759h29.31604v117.2642h-36.06644l-48.79578-75.6045v75.6045z" />
            <path
                d="m269.1985 1677.3858v-117.2642h95.66286v26.2302h-66.03823v20.0583h64.49528v24.6872h-64.49528v20.8298h66.03823v25.4587z" />
            <path
                d="m737.94653 1677.3858v-117.2642h95.66287v26.2302h-66.03824v20.0583h64.1867v24.6872h-64.1867v20.8298h66.03824v25.4587z" />
            <path
                d="m368.57408 1677.3858 46.57779-57.9089-47.68678-59.3553h36.93435l28.39991 36.6932 28.49635-36.6932h35.48784l-47.05996 58.6321 46.66353 58.6321h-36.92851l-27.57537-36.1148-26.90518 36.1148z" />
            <path
                d="m499.86944 1560.1414v117.2641h30.08751v-37.0308h30.85899c26.11107 0 45.90274-13.8524 45.90274-40.7917 0-22.3164-15.52271-39.4416-42.09358-39.4416zm30.08751 26.5194h32.49837c8.43546 0 14.46515 5.1701 14.46515 13.5008 0 7.8262-5.99925 13.5008-14.56158 13.5008h-32.40194z" />
            <path
                d="m619.44802 1560.1216v117.2642h29.31604v-41.6597h12.34359l35.15032 41.6597h35.82536l-38.57374-43.2026c15.83089-1.3361 32.16085-14.9233 32.16085-36.0183 0-24.6764-19.36827-38.0433-40.98459-38.0433zm29.31604 26.2302h33.51093c8.03881 0 13.88654 6.2881 13.88654 12.3435 0 7.7906-7.57673 12.3436-13.45259 12.3436h-33.94488z" />
            <path
                d="m847.18735 1677.3858v-25.4587h58.67066c8.68115 0 12.44003-4.6912 12.44003-9.8363 0-4.9296-3.74703-9.9134-12.44003-9.9134h-26.5126c-23.04571 0-35.88042-14.0409-35.88042-35.1214 0-18.8023 11.75348-36.9344 45.99918-36.9344h57.08913l-12.3436 26.3844h-49.37438c-9.43821 0-12.3436 4.9526-12.3436 9.6821 0 4.8612 3.59036 10.222 10.80065 10.222h27.77309c25.69029 0 36.83792 14.5724 36.83792 33.6556 0 20.5163-12.42212 37.3201-38.23646 37.3201z" />
            <path
                d="m954.78398 1677.3858v-25.4587h58.67062c8.6812 0 12.4401-4.6912 12.4401-9.8363 0-4.9296-3.7471-9.9134-12.4401-9.9134h-26.51256c-23.04571 0-35.88043-14.0409-35.88043-35.1214 0-18.8023 11.75348-36.9344 45.99918-36.9344h57.08911l-12.3436 26.3844h-49.37436c-9.4382 0-12.34359 4.9526-12.34359 9.6821 0 4.8612 3.59035 10.222 10.80064 10.222h27.77311c25.6903 0 36.8379 14.5724 36.8379 33.6556 0 20.5163-12.4221 37.3201-38.2365 37.3201z" />
        </g>
    </g>
</svg>