<svg width="68" height="68" viewBox="0 0 68 68" fill="none" xmlns="http://www.w3.org/2000/svg">
<g clip-path="url(#clip0_86_128)">
<path d="M44.4509 16.4516H32.6226C28.7212 16.4516 25.1139 18.5236 23.1484 21.8926L18.6451 29.6129H55.9355L55.2698 25.6162C54.3878 20.3278 49.8122 16.4516 44.4509 16.4516Z" fill=""/>
<path d="M35.0968 43.871H37.2904V46.0645H35.0968V43.871Z" fill="black"/>
<path d="M30.7097 43.871H32.9033V46.0645H30.7097V43.871Z" fill="black"/>
<path d="M26.3226 43.871H28.5162V46.0645H26.3226V43.871Z" fill="black"/>
<path d="M3.38025 34.5377C4.00736 34.8831 4.71694 35.0968 5.48383 35.0968C7.90658 35.0968 9.87092 33.1324 9.87092 30.7097C9.87092 30.0724 9.72847 29.4715 9.48373 28.9242L9.14367 28.9611C6.13879 29.2959 3.81243 31.6254 3.38025 34.5377Z" fill="#B71C1C"/>
<path d="M62.7652 27.8933C61.323 28.6115 60.3226 30.0858 60.3226 31.8065C60.3226 34.2292 62.287 36.1936 64.7097 36.1936C65.5125 36.1936 66.2564 35.9622 66.9033 35.5847V34C66.9033 31.2297 65.189 28.8626 62.7652 27.8933Z" fill="#B71C1C"/>
<path d="M61.2196 26.374L60.7724 24.2849C59.1182 16.5679 52.191 10.9678 44.2999 10.9678H32.5589C26.9138 10.9678 21.6736 13.7724 18.5407 18.4695L12.5326 27.482L9.02429 27.8714C5.12935 28.3057 2.19355 31.5848 2.19355 35.5027V42.4395C0.816154 44.4006 0 46.7816 0 49.3549V50.4516H5.48387V48.2581H2.25513C2.80245 43.329 6.99194 39.4839 12.0645 39.4839C17.1371 39.4839 21.3234 43.3301 21.8707 48.2581H18.6452V50.4516H49.3548V48.2581H46.1293C46.6766 43.3301 50.8629 39.4839 55.9355 39.4839C61.0081 39.4839 65.1976 43.329 65.7449 48.2581H62.5161V50.4516H68V34C68 30.0703 65.0321 26.8207 61.2196 26.374V26.374ZM13.2609 37.3509C13.5024 35.9853 14.2099 34.7369 15.2954 33.8324L19.042 30.7097H39.4839V32.9033H32.9032V36.1936C32.9032 38.0074 34.3797 39.4839 36.1935 39.4839H39.4839V48.2581H24.0733C23.5523 42.5134 18.9927 37.9175 13.2609 37.3509ZM44.4499 17.5484C49.2954 17.5484 53.3901 21.0176 54.187 25.7973L54.6411 28.5162H41.6774V17.5484H44.4499ZM39.4839 28.5162H20.5549L24.0953 22.4453C25.8577 19.4249 29.1261 17.5484 32.6226 17.5484H39.4839V28.5162ZM39.4839 37.2904H36.1935C35.5884 37.2904 35.0968 36.7977 35.0968 36.1936V35.0968H39.4839V37.2904ZM43.9267 48.2581H41.6774V30.7097H54.8387V37.3461C49.0608 37.8693 44.4499 42.4802 43.9267 48.2581ZM57.0323 37.3461V29.6129L56.3511 25.4352C55.3775 19.5952 50.3729 15.3549 44.4499 15.3549H32.6226C28.3496 15.3549 24.355 17.648 22.2 21.3411L17.7942 28.8948L13.8885 32.1487C12.3023 33.4704 11.3003 35.3239 11.04 37.3428C8.52624 37.5549 6.22773 38.5339 4.3871 40.0553V35.5027C4.3871 32.7046 6.48425 30.3611 9.26581 30.0515L13.79 29.5492L20.3648 19.6863C23.0906 15.6007 27.6486 13.1613 32.5589 13.1613H44.2999C51.1644 13.1613 57.1902 18.0331 58.6282 24.7455L59.4352 28.5162H60.3226C63.3462 28.5162 65.8065 30.9764 65.8065 34V42.4395C63.8202 39.6135 60.6584 37.6743 57.0323 37.3461Z" fill="black"/>
<path d="M55.9355 57.0323C51.7031 57.0323 48.2581 53.5882 48.2581 49.3548C48.2581 45.1214 51.7031 41.6774 55.9355 41.6774C60.1678 41.6774 63.6129 45.1214 63.6129 49.3548C63.6129 53.5882 60.1678 57.0323 55.9355 57.0323ZM55.9355 47.1613C54.7257 47.1613 53.7419 48.1451 53.7419 49.3548C53.7419 50.5646 54.7257 51.5484 55.9355 51.5484C57.1453 51.5484 58.129 50.5646 58.129 49.3548C58.129 48.1451 57.1453 47.1613 55.9355 47.1613Z" fill="#B71C1C"/>
<path d="M12.0645 57.0323C7.83218 57.0323 4.38708 53.5882 4.38708 49.3548C4.38708 45.1214 7.83218 41.6774 12.0645 41.6774C16.2968 41.6774 19.7419 45.1214 19.7419 49.3548C19.7419 53.5882 16.2968 57.0323 12.0645 57.0323ZM12.0645 47.1613C10.8547 47.1613 9.87096 48.1451 9.87096 49.3548C9.87096 50.5646 10.8547 51.5484 12.0645 51.5484C13.2743 51.5484 14.2581 50.5646 14.2581 49.3548C14.2581 48.1451 13.2743 47.1613 12.0645 47.1613Z" fill="#B71C1C"/>
<path d="M55.9355 52.6452C54.1216 52.6452 52.6451 51.1687 52.6451 49.3548C52.6451 47.541 54.1216 46.0645 55.9355 46.0645C57.7493 46.0645 59.2258 47.541 59.2258 49.3548C59.2258 51.1687 57.7493 52.6452 55.9355 52.6452ZM55.9355 48.2581C55.3303 48.2581 54.8387 48.7508 54.8387 49.3548C54.8387 49.9589 55.3303 50.4516 55.9355 50.4516C56.5406 50.4516 57.0322 49.9589 57.0322 49.3548C57.0322 48.7508 56.5406 48.2581 55.9355 48.2581Z" fill="black"/>
<path d="M12.0645 52.6452C10.2506 52.6452 8.77417 51.1687 8.77417 49.3548C8.77417 47.541 10.2506 46.0645 12.0645 46.0645C13.8783 46.0645 15.3548 47.541 15.3548 49.3548C15.3548 51.1687 13.8783 52.6452 12.0645 52.6452ZM12.0645 48.2581C11.4593 48.2581 10.9677 48.7508 10.9677 49.3548C10.9677 49.9589 11.4593 50.4516 12.0645 50.4516C12.6696 50.4516 13.1613 49.9589 13.1613 49.3548C13.1613 48.7508 12.6696 48.2581 12.0645 48.2581Z" fill="black"/>
</g>
<defs>
<clipPath id="clip0_86_128">
<rect width="68" height="68" fill="white"/>
</clipPath>
</defs>
</svg>
