<svg width="50" height="50" viewBox="0 0 50 50" fill="none" xmlns="http://www.w3.org/2000/svg">
<path d="M25 30.7922L21.0938 26.8859V17.9688H22.6562V26.2391L25 28.5828L27.3438 26.2391V17.9688H28.9062V26.8859L25 30.7922Z" fill="black"/>
<path d="M25 16.4062L30.4688 20.3125L32.0312 9.375L25 16.4062Z" fill="#B71C1C"/>
<path d="M25 16.4062L19.5312 20.3125L17.9688 9.375L25 16.4062Z" fill="#B71C1C"/>
<path d="M43.75 16.0359C43.75 13.607 42.1187 11.4445 39.7836 10.7781L31.8039 8.49844L31.0539 9.24844L25.7812 7.27031V3.90625C25.7812 2.18281 24.3797 0.78125 22.6562 0.78125C20.9328 0.78125 19.5312 2.18281 19.5312 3.90625H21.0938C21.0938 3.04453 21.7945 2.34375 22.6562 2.34375C23.518 2.34375 24.2188 3.04453 24.2188 3.90625V7.27031L18.9461 9.24766L18.1961 8.49766L10.2164 10.7773C7.88125 11.4445 6.25 13.607 6.25 16.0359V26.5625H12.5V49.2188H37.5V26.5625H43.75V16.0359ZM42.1875 16.0359V21.875H37.5V11.75L39.3547 12.2797C41.0227 12.7563 42.1875 14.3008 42.1875 16.0359ZM25 8.64609L29.8398 10.4617L28.718 11.5836L25 10.0953L21.282 11.5836L20.1602 10.4617L25 8.64609ZM27.5164 12.7852L25 15.3016L22.4836 12.7852L25 11.7781L27.5164 12.7852ZM10.6453 12.2797L12.5 11.75V21.875H7.8125V16.0359C7.8125 14.3008 8.97734 12.7563 10.6453 12.2797ZM7.8125 25V23.4375H12.5V25H7.8125ZM14.0625 47.6562V11.3039L17.7414 10.2531L25 17.5109L32.2586 10.2523L35.9375 11.3039V47.6562H14.0625ZM37.5 25V23.4375H42.1875V25H37.5Z" fill="black"/>
<path d="M43.75 28.125H42.1875C42.1875 29.8484 40.7859 31.25 39.0625 31.25V32.8125C40.7859 32.8125 42.1875 34.2141 42.1875 35.9375H43.75C43.75 34.2141 45.1516 32.8125 46.875 32.8125V31.25C45.1516 31.25 43.75 29.8484 43.75 28.125Z" fill="#B71C1C"/>
<path d="M7.03125 2.34375H5.46875C5.46875 4.06719 4.06719 5.46875 2.34375 5.46875V7.03125C4.06719 7.03125 5.46875 8.43281 5.46875 10.1562H7.03125C7.03125 8.43281 8.43281 7.03125 10.1562 7.03125V5.46875C8.43281 5.46875 7.03125 4.06719 7.03125 2.34375Z" fill="#B71C1C"/>
<path d="M24.2188 19.5312H25.7812V21.0938H24.2188V19.5312Z" fill="black"/>
<path d="M24.2188 22.6562H25.7812V24.2188H24.2188V22.6562Z" fill="black"/>
</svg>
