<svg width="18" height="18" viewBox="0 0 18 18" fill="none" xmlns="http://www.w3.org/2000/svg">
    <path fill-rule="evenodd" clip-rule="evenodd"
        d="M9 0C13.9705 0 18 4.02945 18 9C18 13.9706 13.9705 18 9 18C4.02945 18 0 13.9706 0 9C0 4.02945 4.02945 0 9 0Z"
        fill="#0E0E11" />
    <path fill-rule="evenodd" clip-rule="evenodd"
        d="M6.32957 8.35247L3.56897 9.54207C3.56469 9.49452 3.56231 9.4464 3.56231 9.39771C3.56231 8.52448 4.27019 7.8166 5.14342 7.8166C5.61586 7.8166 6.03987 8.02393 6.32957 8.35247ZM5.14342 6.63417C6.44608 6.63417 7.53799 7.53551 7.83007 8.74857L6.71623 9.23561L6.71597 9.23328L5.57646 9.73393L2.84288 10.9292C2.55044 10.4908 2.37988 9.96417 2.37988 9.39771C2.37988 7.87142 3.61714 6.63417 5.14342 6.63417ZM7.07448 11.3746C6.08499 12.3137 4.776 12.4059 3.6258 11.7076L4.27566 10.7195C4.93016 11.1108 5.58765 11.0473 6.24818 10.5287L7.07448 11.3746ZM8.19971 10.6905L8.19275 5.46448H9.18285V10.5494C9.18285 10.5982 9.18889 10.6412 9.25289 10.666L10.1142 11.001L9.72615 12.01L8.71717 11.5831C8.33458 11.4212 8.20038 11.1866 8.19971 10.6905Z"
        fill="white" />
    <path fill-rule="evenodd" clip-rule="evenodd"
        d="M11.9278 10.6027C11.5567 10.3141 11.3177 9.86378 11.3177 9.35726C11.3177 8.90695 11.5068 8.50104 11.8094 8.21366L11.1699 7.17725C10.5271 7.68656 10.1143 8.47345 10.1143 9.35726C10.1143 10.3099 10.5935 11.1503 11.3239 11.6514L11.9278 10.6027Z"
        fill="#2091C3" />
    <path fill-rule="evenodd" clip-rule="evenodd"
        d="M12.3614 7.87274C12.5281 7.81281 12.7077 7.77996 12.895 7.77996C13.5703 7.77996 14.1462 8.20453 14.3711 8.80116L15.5965 8.69878C15.3007 7.48097 14.2038 6.57654 12.895 6.57654C12.5252 6.57654 12.1726 6.64936 11.8499 6.78042L12.3614 7.87274Z"
        fill="#FAEC32" />
    <path fill-rule="evenodd" clip-rule="evenodd"
        d="M14.4703 9.43359C14.4304 10.2691 13.7404 10.9344 12.895 10.9344C12.7625 10.9344 12.6339 10.9177 12.511 10.887L12.0303 12C12.3025 12.0889 12.593 12.1378 12.895 12.1378C14.3924 12.1378 15.6127 10.9541 15.6727 9.47145L14.4703 9.43359Z"
        fill="#D0352A" />
</svg>
