<svg xmlns="http://www.w3.org/2000/svg" width="100" height="100" fill="none" viewBox="0 0 100 100"><path fill="#B71C1C" d="M65.6266 54.2797L64.9344 53.936C53.7953 48.4172 46.875 37.2563 46.875 24.8047V14.0454L48.3141 13.9313C54.1562 13.4688 59.7313 11.8219 64.8828 9.03755L65.625 8.63599L66.3688 9.03755C71.5203 11.8219 77.0953 13.4688 82.9375 13.9313L84.375 14.0454V24.8047C84.375 37.2672 77.4562 48.4282 66.3203 53.9376L65.6266 54.2797Z"/><path fill="#B71C1C" d="M25 68.75H37.5V75H25V68.75Z"/><path fill="#B71C1C" d="M65.6703 59.3578L65.625 59.375L65.5797 59.3578C64.5219 58.9344 63.5 58.4547 62.5 57.9438V65.625H81.25V56.25H71.7062C69.8094 57.4469 67.8031 58.5031 65.6703 59.3578Z"/><path fill="#B71C1C" d="M76.5625 84.375H92.1875V92.1875H76.5625V84.375Z"/><path fill="#fff" d="M56.25 24.9812V22.1906C58.5594 21.6718 60.8406 20.9875 63.0516 20.1546L61.9484 17.2312C59.4984 18.1546 56.9531 18.8828 54.3844 19.3921L53.125 19.6406V25.0171L56.25 24.9812Z"/><path fill="#fff" d="M56.4561 27.9187L53.3593 28.3312C53.5077 29.4468 53.7296 30.5656 54.0202 31.6531L57.0405 30.8468C56.7827 29.8875 56.5858 28.9031 56.4561 27.9187Z"/><path fill="#fff" d="M58.9174 34.8328L56.708 37.0421L62.5002 42.8343L77.6674 27.6671L75.458 25.4578L62.5002 38.4156L58.9174 34.8328Z"/><path fill="#000" d="M93.75 54.6875H76.5797C85.3484 47.4656 90.625 36.639 90.625 24.8046V7.81245H86.2672C79.2047 7.81245 72.3672 5.74214 66.4922 1.82495L65.625 1.24683L64.7578 1.82495C58.8844 5.74214 52.0453 7.81245 44.9828 7.81245H40.625V24.8046C40.625 25.4187 40.6719 26.0343 40.7 26.6484C38.0734 24.6437 34.8031 23.4375 31.25 23.4375C25.6141 23.4375 20.5516 26.4218 17.7578 31.25H9.375C6.79063 31.25 4.6875 33.3531 4.6875 35.9375C4.6875 38.5218 6.79063 40.625 9.375 40.625H15.7047C16.1953 45.5406 18.9812 49.7796 22.9641 52.2843C10.6406 54.7265 1.5625 65.589 1.5625 78.3187V82.8125C1.5625 86.2593 4.36562 89.0625 7.8125 89.0625H10.9375V98.4375H48.5109H51.5625H93.75C96.3344 98.4375 98.4375 96.3343 98.4375 93.75V59.375C98.4375 56.7906 96.3344 54.6875 93.75 54.6875ZM43.75 10.9375H44.9828C52.3187 10.9375 59.4344 8.88433 65.625 4.98589C71.8156 8.88433 78.9312 10.9375 86.2672 10.9375H87.5V24.8046C87.5 39.2578 78.9547 52.0859 65.625 57.6859C57.2188 54.1687 50.5844 47.6749 46.8609 39.3406C46.8625 39.2468 46.875 39.1562 46.875 39.0625C46.875 35.8234 45.8828 32.8124 44.1891 30.314C43.9047 28.4968 43.75 26.6468 43.75 24.8046V10.9375ZM39.5375 52.2843C42.4703 50.439 44.7422 47.6531 45.9359 44.3468C48.2453 48.3156 51.2094 51.8015 54.7094 54.6875H46.4578C44.3094 53.5859 41.9875 52.7703 39.5375 52.2843ZM26.5625 54.8953L28.2219 54.6875H34.2766L35.9375 54.8953V56.25C35.9375 58.8343 33.8344 60.9375 31.25 60.9375C28.6656 60.9375 26.5625 58.8343 26.5625 56.25V54.8953ZM31.25 26.5625C37.6125 26.5625 42.8687 31.3437 43.6422 37.5H30.6547L29.6875 35.5687C28.3547 32.9046 25.6781 31.25 22.7 31.25H21.5219C23.8641 28.3218 27.3859 26.5625 31.25 26.5625ZM7.8125 35.9375C7.8125 35.075 8.51406 34.375 9.375 34.375H22.7C24.4875 34.375 26.0938 35.3687 26.8922 36.9656L27.1594 37.5H9.375C8.51406 37.5 7.8125 36.7999 7.8125 35.9375ZM18.8578 40.625H43.6406C42.8672 46.7812 37.6109 51.5625 31.2484 51.5625C24.8859 51.5625 19.6313 46.7812 18.8578 40.625ZM4.6875 82.8125V78.3187C4.6875 67.1312 12.6328 57.575 23.4375 55.3703V56.25C23.4375 60.5578 26.9422 64.0625 31.25 64.0625C35.5578 64.0625 39.0625 60.5578 39.0625 56.25L39.0578 55.3687C49.8641 57.5718 57.8125 67.1296 57.8125 78.3187V82.8125C57.8125 84.5359 56.4109 85.9375 54.6875 85.9375H40.625C38.9016 85.9375 37.5 84.5359 37.5 82.8125C37.5 81.089 38.9016 79.6875 40.625 79.6875H51.5625V67.1875H10.9375V79.6875H21.875C23.5984 79.6875 25 81.089 25 82.8125C25 84.5359 23.5984 85.9375 21.875 85.9375H7.8125C6.08906 85.9375 4.6875 84.5359 4.6875 82.8125ZM14.0625 95.3125V89.0625H21.875C25.3219 89.0625 28.125 86.2593 28.125 82.8125C28.125 79.3656 25.3219 76.5625 21.875 76.5625H14.0625V70.3125H48.4375V76.5625H40.625C37.1781 76.5625 34.375 79.3656 34.375 82.8125C34.375 86.2593 37.1781 89.0625 40.625 89.0625H48.4375V95.3125H14.0625ZM95.3125 93.75C95.3125 94.6124 94.6109 95.3125 93.75 95.3125H51.5625V89.0625H54.6875C58.1344 89.0625 60.9375 86.2593 60.9375 82.8125V78.3187C60.9375 70.1296 57.1719 62.7171 51.2141 57.8125H59.1062C60.9828 58.9625 62.95 59.989 65.0359 60.8234L65.6641 61.0421L66.25 60.8093C68.3391 59.9734 70.3109 58.9578 72.1797 57.814H93.75C94.6109 57.814 95.3125 58.514 95.3125 59.3765V93.75Z"/><path fill="#000" d="M76.5625 89.0625H79.6875V92.1875H76.5625V89.0625Z"/><path fill="#000" d="M82.8125 89.0625H85.9375V92.1875H82.8125V89.0625Z"/><path fill="#000" d="M89.0625 89.0625H92.1875V92.1875H89.0625V89.0625Z"/><path fill="#000" d="M76.5625 82.8125H92.1875V85.9375H76.5625V82.8125Z"/></svg>