<svg width="52" height="52" viewBox="0 0 52 52" fill="none" xmlns="http://www.w3.org/2000/svg">
<path d="M35.2617 41.9014L44.4678 45.249L46.1416 41.9014H35.2617Z" fill="#B71C1C"/>
<path d="M22.7079 38.5537C22.7079 37.418 23.467 36.4698 24.5023 36.1593L24.5274 36.043H22.7079V34.3692C22.7079 31.4994 23.7432 28.874 25.4555 26.8369H20.5947C19.2029 24.7605 16.8487 23.4893 14.3388 23.4893C11.8289 23.4893 9.47466 24.7605 8.08287 26.8369H2.20354C2.16839 26.8369 2.13659 26.8545 2.10144 26.8587L3.77276 40.2276H23.3599C22.959 39.7823 22.7079 39.1998 22.7079 38.5537Z" fill="#B71C1C"/>
<path d="M52 34.3692C52 27.447 46.3684 21.8154 39.4463 21.8154H34.4248C32.0337 21.8154 29.805 22.4992 27.9011 23.6642L28.6643 16.794H25.2187V3.40332H20.1973V6.75098H18.5234V0.0556641H13.5019V4.24024H11.8281V2.56641H8.48045V0.0556641H3.45897V16.794H0L3.55689 45.249H21.8711V47.7598C21.8711 50.0672 23.7483 51.9444 26.0557 51.9444H47.8154C50.1228 51.9444 52 50.0672 52 47.7598V45.249H51.5347C51.8226 44.7544 52 44.1878 52 43.5752C52 42.5709 51.5464 41.6788 50.8434 41.0645C51.5464 40.4502 52 39.558 52 38.5537C52 37.9411 51.8226 37.3745 51.5347 36.8799H52V34.3692V34.3692ZM39.4463 23.4893C45.4453 23.4893 50.3262 28.3701 50.3262 34.3692V35.2061H36.0986C34.7144 35.2061 33.5879 36.3326 33.5879 37.7168V41.0645C33.5879 41.5256 33.2129 41.9014 32.751 41.9014H31.9141V35.2061H30.2402V41.9014V42.7383V46.086C30.2402 46.5471 29.8653 46.9229 29.4033 46.9229C28.9413 46.9229 28.5664 46.5471 28.5664 46.086V37.7168C28.5664 36.3326 27.4399 35.2061 26.0557 35.2061H23.5449V34.3692C23.5449 28.3701 28.4258 23.4893 34.4248 23.4893H39.4463V23.4893ZM26.8926 45.249H26.0557H25.2187C24.2956 45.249 23.5449 44.4983 23.5449 43.5752C23.5449 42.6521 24.2956 41.9014 25.2187 41.9014H26.8926V45.249ZM23.5449 38.5537C23.5449 37.6306 24.2956 36.8799 25.2187 36.8799H26.0557C26.5176 36.8799 26.8926 37.2557 26.8926 37.7168V40.2276H25.2187C24.2956 40.2276 23.5449 39.4768 23.5449 38.5537ZM21.8711 5.07715H23.5449V16.794H21.8711V6.75098V5.07715ZM20.1973 8.42481V16.794H18.5234V8.42481H20.1973V8.42481ZM15.1758 1.72949H16.8496V16.794V17.6309C16.8496 18.7205 16.1474 19.6411 15.1758 19.9876V17.6309V4.24024V1.72949ZM13.5019 5.91406V17.6309V19.9876C12.5303 19.6411 11.8281 18.7205 11.8281 17.6309V16.794V5.91406H13.5019V5.91406ZM10.1543 4.24024V16.794H8.48045V4.24024H10.1543V4.24024ZM5.1328 1.72949H6.80662V16.794H5.1328V1.72949V1.72949ZM5.03488 43.5752L1.89645 18.4678H10.2388C10.628 20.3751 12.3177 21.8154 14.3389 21.8154C16.36 21.8154 18.0506 20.3751 18.4389 18.4678H26.7938L26.064 25.03C23.498 27.3307 21.8711 30.6591 21.8711 34.3692V36.8799H22.3364C22.0485 37.3745 21.8711 37.9411 21.8711 38.5537C21.8711 39.558 22.3247 40.4502 23.0277 41.0645C22.3247 41.6788 21.8711 42.5709 21.8711 43.5752H5.03488ZM50.3262 47.7598C50.3262 49.144 49.1997 50.2705 47.8154 50.2705H26.0557C24.6714 50.2705 23.5449 49.144 23.5449 47.7598V46.9229H25.2187H26.0557H27.0466C27.393 47.8945 28.3136 48.5967 29.4033 48.5967C30.493 48.5967 31.4136 47.8945 31.7601 46.9229H32.751H48.6523H50.3262V47.7598ZM50.3262 43.5752C50.3262 44.4983 49.5755 45.249 48.6523 45.249H32.751H31.9141V43.5752H32.751C33.8406 43.5752 34.7612 42.873 35.1077 41.9014H48.6523C49.5755 41.9014 50.3262 42.6521 50.3262 43.5752ZM50.3262 38.5537C50.3262 39.4768 49.5755 40.2276 48.6523 40.2276H35.2617V37.7168C35.2617 37.2557 35.6366 36.8799 36.0986 36.8799H48.6523C49.5755 36.8799 50.3262 37.6306 50.3262 38.5537Z" fill="black"/>
<path d="M34.4248 28.5107H32.751V30.1846H34.4248V28.5107Z" fill="black"/>
<path d="M41.957 31.8584H40.2832V33.5322H41.957V31.8584Z" fill="black"/>
<path d="M44.4679 26.8369H42.7941V28.5107H44.4679V26.8369Z" fill="black"/>
<path d="M28.5664 31.8584H26.8926V33.5322H28.5664V31.8584Z" fill="black"/>
<path d="M36.9355 25.1631H35.2617V26.8369H36.9355V25.1631Z" fill="black"/>
<path d="M47.8154 31.8584H46.1416V33.5322H47.8154V31.8584Z" fill="black"/>
<path d="M31.9141 26H30.2402V27.6739H31.9141V26Z" fill="black"/>
<path d="M40.2832 28.5107H38.6094V30.1846H40.2832V28.5107Z" fill="black"/>
<path d="M36.0988 31.8584H34.4249V33.5322H36.0988V31.8584Z" fill="black"/>
</svg>
