<svg xmlns="http://www.w3.org/2000/svg" width="52" height="52" fill="none" viewBox="0 0 52 52"><path fill="#000" d="M12.1875 35.75H28.0759V37.375H12.1875V35.75Z"/><path fill="#B71C1C" d="M33.4953 34.9546C32.8648 34.4289 32.5 33.6505 32.5 32.8291C32.5 32.0994 32.7884 31.4405 33.2499 30.9465H32.8469L30.6434 30.2128C30.3452 30.1129 30.0357 30.0625 29.7221 30.0625C28.1174 30.0625 26.8125 31.3674 26.8125 32.9721V35.2779C26.8125 36.8826 28.1174 38.1875 29.7221 38.1875C30.0357 38.1875 30.3452 38.1371 30.6426 38.0372L34.7214 36.6779H35.5647L33.4953 34.9546Z"/><path fill="#B71C1C" d="M45.0279 30.0625C44.7143 30.0625 44.4047 30.1129 44.1082 30.212L41.9038 30.9465H41.5008C41.9615 31.4405 42.25 32.0994 42.25 32.8291C42.25 33.6505 41.8852 34.4289 41.2547 34.9546L39.186 36.6787H40.0294L44.1073 38.038C44.4047 38.1371 44.7143 38.1875 45.0279 38.1875C46.6326 38.1875 47.9375 36.8826 47.9375 35.2779V32.9721C47.9375 31.3674 46.6326 30.0625 45.0279 30.0625V30.0625Z"/><path fill="#B71C1C" d="M11.4733 25.1875H8.125C6.33019 25.1875 4.875 23.7323 4.875 21.9375H8.125C8.95862 21.9375 9.71912 22.2511 10.2944 22.7671L11.4733 25.1875Z"/><path fill="#B71C1C" d="M18.6875 17.0625H21.9375C23.7323 17.0625 25.1875 18.5177 25.1875 20.3125H21.9375C20.1427 20.3125 18.6875 18.8573 18.6875 17.0625Z"/><path fill="#B71C1C" d="M31.6875 15.4375H28.4375C26.6427 15.4375 25.1875 16.8927 25.1875 18.6875H28.4375C30.2323 18.6875 31.6875 17.2323 31.6875 15.4375Z"/><path fill="#000" d="M15.4375 14.625V10.5625H14.625C14.3487 10.5625 14.079 10.5893 13.8125 10.6275V8.125H13C12.0348 8.125 11.1247 8.36875 10.3228 8.7945C9.282 7.84713 7.92431 7.3125 6.5 7.3125H5.6875V10.6275C5.421 10.5893 5.15125 10.5625 4.875 10.5625H4.0625V14.625C4.0625 17.4842 6.18556 19.851 8.9375 20.2475V20.3125H8.98056C9.19263 23.2505 10.5056 25.2501 11.7926 27.1773C12.1217 27.6697 12.4524 28.1661 12.7879 28.7138L13.0292 29.0712L14.3764 28.1637L14.1554 27.8371C13.8288 27.3008 13.4851 26.7865 13.1438 26.2754C11.934 24.4636 10.7965 22.7338 10.6023 20.2418C13.3347 19.8274 15.4375 17.4704 15.4375 14.625V14.625ZM12.1875 11.1191C11.1727 11.6033 10.3253 12.3768 9.75 13.3356C9.57612 13.0455 9.37869 12.7725 9.15769 12.519C9.62 11.1532 10.7876 10.1238 12.1875 9.83288V11.1191ZM7.3125 9.01956C7.92269 9.14387 8.49144 9.41525 8.98381 9.79631C8.52069 10.2603 8.13637 10.803 7.85444 11.414C7.67894 11.3068 7.49856 11.2084 7.3125 11.1191V9.01956ZM5.6875 14.625V12.2696C7.53919 12.6474 8.9375 14.2878 8.9375 16.25V18.6054C7.08581 18.2284 5.6875 16.5872 5.6875 14.625ZM10.5625 18.6054V16.25C10.5625 14.2878 11.9608 12.6466 13.8125 12.2696V14.625C13.8125 16.5872 12.4142 18.2284 10.5625 18.6054Z"/><path fill="#000" d="M30.0625 4.0625C29.7862 4.0625 29.5165 4.08931 29.25 4.1275V1.625H28.4375C27.4723 1.625 26.5622 1.86875 25.7603 2.2945C24.7195 1.34712 23.3618 0.8125 21.9375 0.8125H21.125V4.1275C20.8585 4.08931 20.5888 4.0625 20.3125 4.0625H19.5V8.125C19.5 10.9842 21.6231 13.351 24.375 13.7475V13.8125V22.9808H26V13.8125V13.7475C28.7519 13.351 30.875 10.9842 30.875 8.125V4.0625H30.0625ZM27.625 3.33369V4.61987C26.6102 5.10412 25.7628 5.87762 25.1875 6.83637C25.0136 6.54631 24.8162 6.27331 24.5952 6.01981C25.0575 4.65319 26.2251 3.62456 27.625 3.33369ZM22.75 2.51956C23.3602 2.64388 23.9289 2.91525 24.4213 3.29631C23.9582 3.76025 23.5739 4.303 23.2919 4.914C23.1164 4.80675 22.9361 4.70844 22.75 4.61906V2.51956ZM21.125 8.125V5.76956C22.9767 6.14737 24.375 7.78781 24.375 9.75V12.1054C22.5233 11.7284 21.125 10.0872 21.125 8.125ZM29.25 8.125C29.25 10.0872 27.8517 11.7284 26 12.1054V9.75C26 7.78781 27.3983 6.14656 29.25 5.76956V8.125Z"/><path fill="#000" d="M44.6875 5.6875C44.4112 5.6875 44.1415 5.71431 43.875 5.7525V3.25H43.0625C42.0973 3.25 41.1873 3.49375 40.3853 3.9195C39.3445 2.97212 37.9868 2.4375 36.5625 2.4375H35.75V5.7525C35.4835 5.71431 35.2138 5.6875 34.9375 5.6875H34.125V9.75C34.125 12.5791 36.2042 14.9264 38.9139 15.3595C38.7156 16.3126 38.1818 17.3534 37.5773 18.5209C37.4067 18.8508 37.2304 19.1904 37.0541 19.5431L38.5076 20.2702C38.6799 19.9249 38.8521 19.5918 39.0195 19.2692C39.728 17.901 40.3496 16.6855 40.5503 15.4383H40.625V15.3733C43.3769 14.9768 45.5 12.61 45.5 9.75081V5.6875H44.6875ZM42.25 6.24406C41.2352 6.72831 40.3878 7.50181 39.8125 8.46056C39.6386 8.1705 39.4412 7.8975 39.2202 7.644C39.6825 6.27819 40.8501 5.24956 42.25 4.95869V6.24406ZM37.375 4.14456C37.9852 4.26887 38.5539 4.54025 39.0463 4.92131C38.5832 5.38525 38.1989 5.928 37.9169 6.539C37.7414 6.43175 37.5611 6.33344 37.375 6.24406V4.14456ZM35.75 9.75V7.39456C37.6017 7.77237 39 9.41281 39 11.375V13.7304C37.1483 13.3534 35.75 11.7122 35.75 9.75ZM43.875 9.75C43.875 11.7122 42.4767 13.3534 40.625 13.7304V11.375C40.625 9.41281 42.0233 7.77156 43.875 7.39456V9.75Z"/><path fill="#000" d="M44.0554 45.9119L40.8801 36.3252L41.7755 35.5794C42.5929 34.8961 43.0625 33.8942 43.0625 32.8291C43.0625 31.5892 42.4271 30.4956 41.4659 29.8529L42.4889 24.6334L40.8939 24.3206L39.9197 29.2939C39.7751 29.276 39.6329 29.25 39.4834 29.25H39.3339C38.6384 29.25 37.9722 29.4466 37.3815 29.8366C36.803 29.4547 36.1254 29.25 35.416 29.25H35.2665C33.293 29.25 31.6875 30.8563 31.6875 32.8291C31.6875 33.8942 32.1571 34.8961 32.9753 35.5794L33.8707 36.3252L32.4464 40.625H12.1989L11.7 37.6334L10.0969 37.8999L12.3118 51.1875H38.0632L38.8643 46.3791L39.1917 48.3437L44.0554 45.9119ZM42.0696 45.0881L40.4332 45.9062L39.0853 37.8202L39.5379 37.4432L42.0696 45.0881ZM37.9055 40.625H36.8444L37.1109 39.0252L37.375 39.2454L37.6391 39.0252L37.9055 40.625ZM35.2665 30.875H35.416C35.9385 30.875 36.4292 31.0781 36.7486 31.3934L37.3222 32.0767L37.951 31.4478C38.3207 31.0781 38.8115 30.875 39.3339 30.875H39.4834C40.5608 30.875 41.4375 31.7517 41.4375 32.8291C41.4375 33.4108 41.1815 33.9584 40.7347 34.3306L37.375 37.1296L34.0161 34.3314C33.5684 33.9584 33.3125 33.4108 33.3125 32.8291C33.3125 31.7517 34.1892 30.875 35.2665 30.875ZM35.6647 37.8202L34.3167 45.9062L32.6795 45.0881L35.2113 37.4424L35.6647 37.8202ZM13.6882 49.5625L12.4694 42.25H31.9077L30.6946 45.9119L35.5574 48.3437L36.573 42.25H37.9047L36.686 49.5625H13.6882Z"/><path fill="#B71C1C" d="M8.50769 39.8125H8.45731C6.48213 39.8125 4.875 38.2094 4.875 36.2391V36.1351C4.875 35.1317 5.30075 34.1567 6.04419 33.4636C13.1519 26.8255 26.3567 19.474 42.1029 18.7476C42.9894 18.707 43.8425 19.0247 44.4909 19.6438C45.1327 20.2556 45.5 21.1152 45.5 22C45.5 23.738 44.1374 25.1615 42.3987 25.2403C28.0962 25.896 16.8675 32.617 11.1272 38.6888C10.452 39.403 9.4965 39.8125 8.50769 39.8125V39.8125Z"/></svg>