<svg width="50" height="50" viewBox="0 0 50 50" fill="none" xmlns="http://www.w3.org/2000/svg">
<path d="M50 40.0993V35.7079L47.9807 35.0413C47.7606 34.2628 47.4491 33.513 47.0525 32.8039L48.0098 30.9031L44.9049 27.7986L43.0041 28.7558C42.2942 28.3589 41.5444 28.0474 40.7667 27.8273L40.0993 25.8065H38.2048L37.9733 25.6049L37.4224 31.4757C37.5823 31.4646 37.7409 31.4516 37.9032 31.4516C41.4661 31.4516 44.3548 34.3404 44.3548 37.9032C44.3548 41.4661 41.4661 44.3549 37.9032 44.3549C36.6329 44.3549 35.4515 43.9823 34.4533 43.3484C34.108 43.4744 33.7394 43.5484 33.3531 43.5484H28.1742L28.3856 43.737L27.7977 44.9042L30.903 48.0087L32.8038 47.0518C33.5138 47.4484 34.2635 47.7598 35.0412 47.98L35.7071 50H40.0985L40.7651 47.9807C41.5436 47.7606 42.2934 47.4491 43.0026 47.0526L44.9033 48.0099L48.0078 44.905L47.0506 43.0042C47.4475 42.2942 47.759 41.5445 47.9791 40.7668L50 40.0993Z" fill="#B71C1C"/>
<path d="M5.64516 16.9355C5.64516 13.3726 8.5339 10.4839 12.0968 10.4839C13.008 10.4839 13.8743 10.6749 14.6606 11.0163C15.0379 9.77826 16.1759 8.871 17.5372 8.871H18.7216L18.0227 8.26301L17.8628 8.15473C17.6628 8.05156 16.0822 7.24511 14.9646 6.87259L14.2929 4.83875H9.90148L9.23403 6.85802C8.45553 7.07814 7.70579 7.38962 6.9966 7.78615L5.09506 6.83007L1.99014 9.93459L2.94741 11.8353C2.55088 12.5453 2.2394 13.2951 2.01928 14.0728L0 14.7394V19.1308L2.01928 19.7975C2.2394 20.576 2.55088 21.3257 2.94741 22.0349L1.99014 23.9357L5.09506 27.0402L6.99581 26.0829C7.70579 26.4798 8.45553 26.7913 9.23324 27.0114L9.90069 29.0323H11.9645L12.383 29.4072L11.8168 23.3726C8.38465 23.2257 5.64516 20.4039 5.64516 16.9355Z" fill="#B71C1C"/>
<path d="M32.2581 17.742H17.7419V11.2904H32.2581V17.742Z" fill="#B71C1C"/>
<path d="M28.2258 19.3549H21.7742V24.1936H28.2258V19.3549ZM26.6129 22.5807H23.3871V20.9678H26.6129V22.5807Z" fill="black"/>
<path d="M24.1936 25.8064H25.8065V27.4193H24.1936V25.8064Z" fill="black"/>
<path d="M27.4193 25.8064H29.0322V27.4193H27.4193V25.8064Z" fill="black"/>
<path d="M20.9678 25.8064H22.5807V27.4193H20.9678V25.8064Z" fill="black"/>
<path d="M20.9678 41.129H29.0323V36.2903H20.9678V41.129ZM22.5807 37.9032H27.4194V39.5161H22.5807V37.9032Z" fill="black"/>
<path d="M38.3088 30.6652L39.4953 18.0168C39.5091 17.8581 39.5162 17.6974 39.5162 17.538C39.5162 15.362 38.1935 13.4128 36.2348 12.5606L36.2557 12.4071C36.2781 12.2354 36.2904 12.0637 36.2904 11.892C36.2904 9.98771 34.8881 8.41695 33.0646 8.12595V7.25806C33.0646 6.20826 32.388 5.32108 31.4516 4.98716V0H26.6129V4.83871H23.3871V0H18.5484V4.98716C17.612 5.32108 16.9355 6.20826 16.9355 7.25806V8.12516C15.7751 8.31063 14.7969 9.01548 14.2315 9.99677C13.5435 9.78453 12.8284 9.67742 12.0968 9.67742C8.09527 9.67742 4.83875 12.9339 4.83875 16.9355C4.83875 20.5968 7.52665 23.6273 11.0773 24.1227L12.6323 40.699C12.8284 42.7829 14.554 44.3548 16.6477 44.3548H33.3532C33.7009 44.3548 34.0324 44.2977 34.3542 44.2154C35.4355 44.825 36.6507 45.1613 37.9033 45.1613C41.9048 45.1613 45.1613 41.9048 45.1613 37.9032C45.1613 34.0379 42.1218 30.8783 38.3088 30.6652ZM28.2258 6.45161V8.06452H21.7742V6.45161H28.2258ZM29.8387 6.45161H30.6452C31.0894 6.45161 31.4516 6.81389 31.4516 7.25806V8.06452H29.8387V6.45161ZM28.2258 1.6129H29.8387V4.83871H28.2258V1.6129ZM21.7742 1.6129V4.83871H20.1613V1.6129H21.7742ZM19.3549 6.45161H20.1613V8.06452H18.5484V7.25806C18.5484 6.81389 18.9107 6.45161 19.3549 6.45161ZM17.5372 9.67742H32.4636C33.6847 9.67742 34.6775 10.6701 34.6775 11.892C34.6775 11.9928 34.6704 12.0936 34.6574 12.1913L32.6219 27.1169C32.4727 28.2089 31.53 29.0323 30.4274 29.0323H19.5726C18.4708 29.0323 17.5274 28.2089 17.3781 27.1169L15.3427 12.1936C15.3297 12.0936 15.3226 11.9928 15.3226 11.892C15.3226 10.6701 16.3153 9.67742 17.5372 9.67742ZM30.6452 30.6251L29.888 42.7419H20.1121L19.3549 30.6251C19.4281 30.629 19.4986 30.6452 19.5726 30.6452H30.4274C30.5015 30.6452 30.572 30.629 30.6452 30.6251ZM6.45165 16.9355C6.45165 13.8227 8.98402 11.2903 12.0968 11.2903C12.6623 11.2903 13.2147 11.3734 13.7459 11.5356C13.7345 11.655 13.7097 11.7695 13.7097 11.892C13.7097 12.0645 13.7219 12.2362 13.7444 12.4098L13.7652 12.5614C11.8066 13.4128 10.4839 15.362 10.4839 17.538C10.4839 17.6974 10.491 17.8581 10.5056 18.0203L10.9218 22.4531C8.3524 21.9128 6.45165 19.6502 6.45165 16.9355ZM14.2378 40.5482L12.1114 17.8727C12.1015 17.7612 12.0968 17.6502 12.0968 17.538C12.0968 16.166 12.8485 14.9257 13.996 14.2499L15.7806 27.3355C15.9467 28.5558 16.6922 29.5741 17.7097 30.1474L18.4968 42.7419H16.6477C15.3911 42.7419 14.3555 41.7992 14.2378 40.5482ZM31.5032 42.7419L32.2904 30.1466C33.3079 29.5741 34.0533 28.555 34.2195 27.3347L36.0041 14.2491C37.1515 14.9257 37.9033 16.166 37.9033 17.538C37.9033 17.6502 37.8985 17.7612 37.8887 17.8703L35.7623 40.5482C35.6446 41.7985 34.6089 42.7419 33.3532 42.7419H31.5032ZM37.9033 43.5484C37.2929 43.5484 36.6952 43.4405 36.125 43.2507C36.8105 42.6018 37.2724 41.713 37.3677 40.699L38.158 32.2711C41.1523 32.4057 43.5484 34.8767 43.5484 37.9032C43.5484 41.016 41.0161 43.5484 37.9033 43.5484Z" fill="black"/>
</svg>
