<svg width="100" height="100" viewBox="0 0 100 100" fill="none" xmlns="http://www.w3.org/2000/svg">
<path d="M20.3125 20.3125C16.8656 20.3125 14.0625 17.5094 14.0625 14.0625C14.0625 10.6156 16.8656 7.8125 20.3125 7.8125C23.7594 7.8125 26.5625 10.6156 26.5625 14.0625C26.5625 17.5094 23.7594 20.3125 20.3125 20.3125Z" fill="#B71C1C"/>
<path d="M98.4375 58.375V48.0437L86.8984 26.5547C85.55 22.9172 82.0562 20.3125 77.9562 20.3125H46.1906C44.0359 20.3125 42.1656 21.7734 41.6422 23.8625L41.3406 25.0672L37.9578 21.6844C37.0734 20.8016 35.8953 20.3125 34.6422 20.3125H31.4922C32.3469 18.3484 32.8125 16.2016 32.8125 14.0625C32.8125 7.17031 27.2047 1.5625 20.3125 1.5625C13.4203 1.5625 7.8125 7.17031 7.8125 14.0625C7.8125 16.2016 8.27812 18.3484 9.13281 20.3125H6.25C3.66562 20.3125 1.5625 22.4156 1.5625 25V47.1438C1.5625 48.3953 2.05 49.5734 2.93594 50.4578L5.60313 53.125L2.93594 55.7922C2.05 56.6766 1.5625 57.8547 1.5625 59.1062V85.2469C1.5625 87.2672 2.85 89.0547 4.76719 89.6937L30.2719 98.1953C30.75 98.3563 31.25 98.4375 31.7578 98.4375H93.75C96.3344 98.4375 98.4375 96.3344 98.4375 93.75V71.6062C98.4375 70.3547 97.95 69.1766 97.0641 68.2922L92.2312 63.4594L94.6688 62.9703C96.8516 62.5359 98.4375 60.6031 98.4375 58.375ZM86.8922 33.1469L93.1687 44.8375L81.3703 38.9375L82.8672 38.0406C84.7484 36.9094 86.1469 35.1578 86.8922 33.1469ZM20.3125 4.6875C25.4828 4.6875 29.6875 8.89219 29.6875 14.0625C29.6875 15.8797 29.2812 17.7109 28.5125 19.3594L20.3125 36.9312L12.1125 19.3594C11.3438 17.7109 10.9375 15.8797 10.9375 14.0625C10.9375 8.89219 15.1422 4.6875 20.3125 4.6875ZM20.3125 78.0438C20.3125 80.1328 18.8969 81.9453 16.8703 82.4531L16.2188 82.6156L11.3094 76.4781L11.9875 75.4609C12.8313 74.1937 14.2453 73.4375 15.7688 73.4375C18.2734 73.4375 20.3125 75.4766 20.3125 78.0438ZM17.6281 85.4844C19.7609 84.95 21.4922 83.5594 22.4937 81.7188L28.3078 94.2484L8.70625 87.7141L17.6281 85.4844ZM85.8938 61.5406L94.8547 70.5016C95.1453 70.7937 95.3125 71.1953 95.3125 71.6062V93.75C95.3125 94.6125 94.6109 95.3125 93.75 95.3125H32.2469L22.9078 75.1859L22.8938 75.1922C21.7734 72.3422 19.0109 70.3125 15.7688 70.3125C13.1984 70.3125 10.8125 71.5891 9.3875 73.7281L7.44063 76.6469L12.8828 83.45L4.725 85.4891C4.7125 85.4094 4.6875 85.3312 4.6875 85.2484V59.1078C4.6875 58.6969 4.85469 58.2938 5.14531 58.0031L10.0219 53.125L5.14531 48.2484C4.85469 47.9562 4.6875 47.5547 4.6875 47.1438V25C4.6875 24.1375 5.38906 23.4375 6.25 23.4375H10.5672L20.3125 44.3188L30.0578 23.4375H34.6422C35.0594 23.4375 35.4531 23.6 35.7484 23.8953L43.0344 31.1812L44.6734 24.6219C44.8484 23.925 45.4719 23.4375 46.1906 23.4375H77.9578C81.4953 23.4375 84.375 26.3172 84.375 29.8562C84.375 32.0969 83.1813 34.2062 81.2578 35.3594L74.8797 39.1859L95.3125 49.4031V58.375C95.3125 59.1188 94.7844 59.7625 94.0563 59.9062L85.8938 61.5406Z" fill="black"/>
<path d="M71.875 79.6875C69.2906 79.6875 67.1875 77.5844 67.1875 75V42.1875C67.1875 37.0172 62.9828 32.8125 57.8125 32.8125C52.6422 32.8125 48.4375 37.0172 48.4375 42.1875V68.75C48.4375 71.3344 46.3344 73.4375 43.75 73.4375C41.1656 73.4375 39.0625 71.3344 39.0625 68.75V46.875C39.0625 42.5672 35.5578 39.0625 31.25 39.0625H25V42.1875H31.25C33.8344 42.1875 35.9375 44.2906 35.9375 46.875V68.75C35.9375 73.0578 39.4422 76.5625 43.75 76.5625C48.0578 76.5625 51.5625 73.0578 51.5625 68.75V42.1875C51.5625 38.7406 54.3656 35.9375 57.8125 35.9375C61.2594 35.9375 64.0625 38.7406 64.0625 42.1875V75C64.0625 79.3078 67.5672 82.8125 71.875 82.8125H73.5953C73.4922 82.3078 73.4375 81.7844 73.4375 81.25C73.4375 80.7156 73.4922 80.1922 73.5953 79.6875H71.875Z" fill="black"/>
<path d="M81.25 89.0625C76.9422 89.0625 73.4375 85.5578 73.4375 81.25C73.4375 76.9422 76.9422 73.4375 81.25 73.4375C85.5578 73.4375 89.0625 76.9422 89.0625 81.25C89.0625 85.5578 85.5578 89.0625 81.25 89.0625Z" fill="#B71C1C"/>
</svg>
