<svg xmlns="http://www.w3.org/2000/svg" width="100" height="100" fill="none" viewBox="0 0 100 100"><path fill="#000" d="M97.5239 85.5642L87.0968 75.1386V38.7097H72.2404V41.9355H83.871V71.9128L82.2581 70.2999L79.8387 72.7193L75.7773 68.6579L73.4966 70.9386L77.558 75L75 77.558L70.9386 73.4966L68.6579 75.7773L72.7193 79.8387L70.2999 82.2581L75.1386 87.0968H27.4194V80.6452H56.3225V77.4194H24.1936V87.0968H12.9032V77.4194H3.22581V67.7419H12.9032V41.9355H10.2145V38.7097H7.62939e-06V90.3226H78.3644L85.5642 97.5224C87.1614 99.1211 89.2838 100 91.5449 100C96.2064 100 100 96.2064 100 91.5433C100 89.287 99.1211 87.1645 97.5239 85.5642ZM9.67743 41.9355V64.5161H3.22581V41.9355H9.67743ZM3.22581 80.6452H9.67743V87.0968H3.22581V80.6452ZM91.5449 96.7742C90.147 96.7742 88.8341 96.2308 87.8465 95.2416L74.8614 82.2581L82.2581 74.8614L95.2416 87.845C96.2308 88.8341 96.7742 90.1485 96.7742 91.5433C96.7742 94.4273 94.4289 96.7742 91.5449 96.7742Z"/><path fill="#000" d="M31.721 38.7097H40.6628V41.9355H31.721V38.7097Z"/><path fill="#000" d="M35.4839 67.7419H24.1936V48.9706H27.4194V64.5161H35.4839V67.7419Z"/><path fill="#B71C1C" d="M56.4516 80.6451C43.1113 80.6451 32.2581 69.7919 32.2581 56.4516C32.2581 43.1113 43.1113 32.2581 56.4516 32.2581C69.7919 32.2581 80.6452 43.1113 80.6452 56.4516C80.6452 69.7919 69.7919 80.6451 56.4516 80.6451ZM56.4516 40.3226C47.5578 40.3226 40.3226 47.5578 40.3226 56.4516C40.3226 65.3454 47.5578 72.5806 56.4516 72.5806C65.3454 72.5806 72.5806 65.3454 72.5806 56.4516C72.5806 47.5578 65.3454 40.3226 56.4516 40.3226Z"/><path fill="#000" d="M56.4516 74.1936C46.6694 74.1936 38.7097 66.2338 38.7097 56.4516C38.7097 46.6695 46.6694 38.7097 56.4516 38.7097C66.2338 38.7097 74.1935 46.6695 74.1935 56.4516C74.1935 66.2338 66.2338 74.1936 56.4516 74.1936ZM56.4516 41.9355C48.4469 41.9355 41.9355 48.4485 41.9355 56.4516C41.9355 64.4547 48.4469 70.9678 56.4516 70.9678C64.4563 70.9678 70.9677 64.4547 70.9677 56.4516C70.9677 48.4485 64.4563 41.9355 56.4516 41.9355Z"/><path fill="#000" d="M45.1613 48.3871V64.5161H67.7419V48.3871H45.1613ZM54.8387 51.6129H58.0645V54.8387H54.8387V51.6129ZM64.5161 61.2903H48.3871V51.6129H51.6129V58.0645H61.2903V51.6129H64.5161V61.2903Z"/><path fill="#B71C1C" d="M20.9677 0C9.4065 0 0 9.4065 0 20.9677V21.56C0 25.7127 1.21755 29.7355 3.52271 33.1905L20.9677 59.36L38.4128 33.1905C40.7179 29.7355 41.9355 25.7127 41.9355 21.56V20.9677C41.9355 9.4065 32.529 0 20.9677 0V0ZM20.9677 33.871C13.842 33.871 8.06452 28.0935 8.06452 20.9677C8.06452 13.842 13.842 8.06452 20.9677 8.06452C28.0935 8.06452 33.871 13.842 33.871 20.9677C33.871 28.0935 28.0935 33.871 20.9677 33.871Z"/><path fill="#000" d="M20.9677 35.4839C12.9631 35.4839 6.45162 28.9708 6.45162 20.9677C6.45162 12.9646 12.9631 6.4516 20.9677 6.4516C28.9724 6.4516 35.4839 12.9646 35.4839 20.9677C35.4839 28.9708 28.9724 35.4839 20.9677 35.4839ZM20.9677 9.67741C14.7437 9.67741 9.67742 14.7421 9.67742 20.9677C9.67742 27.1933 14.7437 32.258 20.9677 32.258C27.1918 32.258 32.2581 27.1933 32.2581 20.9677C32.2581 14.7421 27.1918 9.67741 20.9677 9.67741Z"/><path fill="#B71C1C" d="M90.3226 11.2903H74.1936V1.61288H90.3226V11.2903Z"/><path fill="#B71C1C" d="M90.3226 30.6451H74.1936V20.9677H90.3226V30.6451Z"/><path fill="#000" d="M95.1613 32.2581H69.3548C66.6874 32.2581 64.5161 30.0868 64.5161 27.4194V4.83871C64.5161 2.17128 66.6874 0 69.3548 0H95.1613C97.8287 0 100 2.17128 100 4.83871V27.4194C100 30.0868 97.8287 32.2581 95.1613 32.2581ZM69.3548 3.22581C68.4649 3.22581 67.7419 3.95035 67.7419 4.83871V27.4194C67.7419 28.3077 68.4649 29.0323 69.3548 29.0323H95.1613C96.0512 29.0323 96.7742 28.3077 96.7742 27.4194V4.83871C96.7742 3.95035 96.0512 3.22581 95.1613 3.22581H69.3548Z"/><path fill="#000" d="M80.6452 6.4516H83.871V11.2903H80.6452V6.4516Z"/><path fill="#000" d="M80.6452 20.9677H83.871V25.8064H80.6452V20.9677Z"/></svg>