<svg width="55" height="55" viewBox="0 0 55 55" fill="none" xmlns="http://www.w3.org/2000/svg">
<path d="M39.9991 39.4758C40.4222 41.9925 42.6053 43.9113 45.2419 43.9113C48.1817 43.9113 50.5645 41.5286 50.5645 38.5888C50.5645 35.6489 48.1817 33.2662 45.2419 33.2662C43.2724 33.2662 41.558 34.3378 40.6371 35.9275H35.8607C37.0203 31.8333 40.7761 28.8307 45.2419 28.8307C50.6312 28.8307 55 33.1995 55 38.5888C55 43.978 50.6312 48.3468 45.2419 48.3468C40.152 48.3468 35.9772 44.4489 35.5281 39.4758H39.9991Z" fill="#B71C1C"/>
<path d="M8.871 20.8468H11.5323C13.9779 20.8468 15.9678 18.8569 15.9678 16.4113C15.9678 13.9657 13.9779 11.9758 11.5323 11.9758H8.871C7.89251 11.9758 7.09681 12.7715 7.09681 13.75V19.0726C7.09681 20.0511 7.89251 20.8468 8.871 20.8468Z" fill="#B71C1C"/>
<path d="M24.8388 19.9597H26.613C29.5484 19.9597 31.9355 22.3468 31.9355 25.2823V26.1694H19.5162V25.2823C19.5162 22.3468 21.9033 19.9597 24.8388 19.9597Z" fill="#B71C1C"/>
<path d="M9.75805 28.8307C9.85637 28.8307 9.95123 28.8424 10.0491 28.8458L8.52573 33.416C6.18107 33.9722 4.43546 36.0739 4.43546 38.5888C4.43546 41.5286 6.81824 43.9113 9.75805 43.9113C12.6979 43.9113 15.0806 41.5286 15.0806 38.5888C15.0806 37.2945 14.6176 36.1085 13.8492 35.1859L15.3726 30.6166C17.8758 32.3825 19.5161 35.2916 19.5161 38.5888C19.5161 43.978 15.1473 48.3468 9.75805 48.3468C4.36876 48.3468 -2.28882e-05 43.978 -2.28882e-05 38.5888C-2.28882e-05 33.1995 4.36876 28.8307 9.75805 28.8307Z" fill="#B71C1C"/>
<path d="M28.3871 31.4919H26.6129V33.2661H28.3871V31.4919Z" fill="black"/>
<path d="M11.5322 11.9758H9.75803V20.8468H11.5322V11.9758Z" fill="black"/>
<path d="M7.83318 32.6879L10.0847 25.9342L11.1711 26.2963L17.4007 8.55003C17.7402 7.41517 18.7647 6.65326 19.9489 6.65326H27.5C28.9671 6.65326 30.1613 7.84746 30.1613 9.31455C30.1613 10.7816 28.9671 11.9758 27.5 11.9758H22.3486L20.0767 18.0339C21.7447 16.9861 23.684 16.4113 25.7259 16.4113C28.4157 16.4113 30.8674 17.4219 32.7438 19.0726H39.7111C41.0807 19.0726 42.3286 19.7397 43.0862 20.8468H48.2242C50.0015 20.8468 51.6015 21.9015 52.3015 23.5345L54.5717 28.8307H49.4098L47.419 27.5035C46.9798 27.2107 46.4695 27.0565 45.9428 27.0565H40.5999L41.9977 29.3868C41.432 29.5874 40.8927 29.8421 40.3798 30.1384L38.5303 27.0565H36.371V28.5851L38.2799 31.767C37.839 32.2175 37.4426 32.7109 37.0948 33.2406L34.9819 29.7178H31.0263C31.4539 30.283 31.7475 30.9484 31.8654 31.6774C32.1625 31.5621 32.4839 31.492 32.8226 31.492C34.2897 31.492 35.4839 32.6862 35.4839 34.1533C35.4839 34.4656 35.4202 34.7618 35.3206 35.0404H40.1607C41.3159 33.3913 43.2114 32.3791 45.242 32.3791C48.6661 32.3791 51.4517 35.1647 51.4517 38.5887C51.4517 42.0128 48.6661 44.7984 45.242 44.7984C42.4546 44.7984 40.0658 42.9718 39.2948 40.3629H19.3477C19.4534 39.7873 19.5162 39.1956 19.5162 38.5887H22.5365C20.2408 36.1847 18.8864 33.053 18.678 29.7178H16.6076L14.8377 35.0261C15.5676 36.0656 15.9678 37.304 15.9678 38.5887C15.9678 42.0128 13.1822 44.7984 9.75811 44.7984C6.33403 44.7984 3.54843 42.0128 3.54843 38.5887C3.54843 35.8555 5.30486 33.5057 7.83318 32.6879ZM19.0869 9.09797L12.8543 26.8568L14.6497 27.4559L21.7846 8.42745H19.9489C19.5543 8.42745 19.213 8.68215 19.0869 9.09797ZM28.3871 9.31455C28.3871 8.82595 27.9886 8.42745 27.5 8.42745H26.6129V10.2016H27.5C27.9886 10.2016 28.3871 9.80315 28.3871 9.31455ZM24.8388 10.2016V8.42745H23.6792L23.0139 10.2016H24.8388ZM48.4018 26.0273L49.9465 27.0565H51.88L50.6711 24.2336C50.2505 23.2543 49.2907 22.621 48.2242 22.621H43.4678V25.2823H45.942C46.82 25.2823 47.6707 25.5405 48.4018 26.0273ZM36.2103 25.2823H41.6936V21.9947C41.2765 21.2895 40.5397 20.8468 39.7102 20.8468H34.3547C35.2877 22.1393 35.9344 23.6463 36.2103 25.2823ZM34.5968 27.0565C34.5968 22.1649 30.6174 18.1855 25.7259 18.1855C22.9723 18.1855 20.4362 19.43 18.7408 21.5983L16.8692 26.59C16.8609 26.7442 16.8549 26.8997 16.8549 27.0565V27.9436H34.5968V27.0565ZM24.8388 32.3791C24.8388 33.8462 26.033 35.0404 27.5 35.0404C28.9671 35.0404 30.1613 33.8462 30.1613 32.3791C30.1613 30.912 28.9671 29.7178 27.5 29.7178C26.033 29.7178 24.8388 30.912 24.8388 32.3791ZM33.7097 34.1533C33.7097 33.6647 33.3112 33.2662 32.8226 33.2662C32.334 33.2662 31.9355 33.6647 31.9355 34.1533C31.9355 34.6419 32.334 35.0404 32.8226 35.0404C33.3112 35.0404 33.7097 34.6419 33.7097 34.1533ZM45.242 43.0242C47.6876 43.0242 49.6775 41.0343 49.6775 38.5887C49.6775 36.1432 47.6876 34.1533 45.242 34.1533C44.2726 34.1533 43.3452 34.476 42.5885 35.0404H43.9876C45.1683 35.0404 46.1291 36.0011 46.1291 37.1819C46.1291 37.7541 45.9064 38.2916 45.5019 38.6962L43.8351 40.3629H41.1907C41.8798 41.9483 43.4383 43.0242 45.242 43.0242ZM24.8548 38.334L25.1597 38.5887H43.1005L44.2475 37.4418C44.3159 37.3733 44.3549 37.2785 44.3549 37.1819C44.3549 36.9796 44.1899 36.8145 43.9876 36.8145H32.8226C31.8745 36.8145 31.0458 36.3125 30.5746 35.5636C29.7763 36.3346 28.6951 36.8145 27.5 36.8145C25.0545 36.8145 23.0646 34.8246 23.0646 32.3791C23.0646 31.3767 23.4115 30.4611 23.9746 29.7178H20.4522C20.6917 33.0639 22.2546 36.1679 24.8548 38.334ZM11.2057 28.1788L8.21912 37.1411L11.8589 38.3535L14.8455 29.3912L11.2057 28.1788ZM9.75811 43.0242C12.2037 43.0242 14.1936 41.0343 14.1936 38.5887C14.1936 38.2011 14.126 37.8234 14.0286 37.4552L12.9808 40.5981L5.97538 38.2621L7.03011 35.098C5.98448 35.914 5.32262 37.1767 5.32262 38.5887C5.32262 41.0343 7.31253 43.0242 9.75811 43.0242Z" fill="black"/>
</svg>
