<svg width="49" height="49" viewBox="0 0 49 49" fill="none" xmlns="http://www.w3.org/2000/svg">
<g clip-path="url(#clip0_151_9)">
<path d="M31.331 14.6837L29.3213 13.0771L27.5935 14.459H25.705V0.803223H36.9508V14.459H35.0615L33.3377 13.0779L31.331 14.6837Z" fill="#B71C1C"/>
<path d="M35.0623 27.3114L33.3345 28.6932L31.3248 27.0867L29.3174 28.6924L27.5943 27.3114H25.705V33.7376H26.5082C27.8394 33.7376 28.9181 34.8163 28.9181 36.1475H36.9508V27.3114H35.0623Z" fill="#B71C1C"/>
<path d="M45.7869 25.7049H32.9344V17.6721H45.7869V25.7049Z" fill="#B71C1C"/>
<path d="M49 0H13.6558V30.5383C13.5632 30.536 13.4726 30.5246 13.3804 30.5246C11.2895 30.5246 9.2852 31.1671 7.58451 32.3818L4.35296 34.6904L5.28645 35.9973L8.518 33.6887C10.8725 32.0076 14.019 31.6675 16.6751 32.8066L18.8379 33.7338C20.0867 34.2696 21.4081 34.541 22.7672 34.541H26.5082C27.3943 34.541 28.1148 35.2615 28.1148 36.1475C28.1148 37.0336 27.3943 37.7541 26.5082 37.7541H12.8525V39.3607H26.5082C28.2803 39.3607 29.7213 37.9196 29.7213 36.1475H38.2248L33.9162 40.4561C32.5505 41.8211 30.7352 42.5738 28.8039 42.5738H13.0172C11.164 42.5738 9.38796 43.1425 7.88103 44.2196L4.35217 46.7404L5.28567 48.0473L8.81453 45.5264C10.0481 44.6455 11.5005 44.1803 13.0172 44.1803H28.8031C31.1632 44.1803 33.3828 43.2606 35.0509 41.592L39.8996 36.7437C40.0812 36.5629 40.2346 36.3605 40.3726 36.1475H49V0ZM47.3935 1.60656V6.42623H15.2623V1.60656H47.3935ZM29.2746 34.541C28.7172 33.5851 27.6924 32.9344 26.5082 32.9344H22.7672C21.6274 32.9344 20.5182 32.7069 19.4717 32.2582L17.309 31.331C16.6465 31.0466 15.9613 30.8427 15.2623 30.7085V8.03279H47.3935V34.541H29.2746Z" fill="black"/>
<path d="M36.1476 20.8853H42.5738V22.4918H36.1476V20.8853Z" fill="black"/>
<path d="M5.62295 49H0V32.9344H5.62295V49Z" fill="#B71C1C"/>
</g>
<defs>
<clipPath id="clip0_151_9">
<rect width="49" height="49" fill="white"/>
</clipPath>
</defs>
</svg>
