<svg width="43" height="43" viewBox="0 0 43 43" fill="none" xmlns="http://www.w3.org/2000/svg">
<path d="M21.5 42.3281C10.0156 42.3281 0.671875 32.985 0.671875 21.5C0.671875 10.015 10.0156 0.671875 21.5 0.671875C32.9844 0.671875 42.3281 10.015 42.3281 21.5C42.3281 32.985 32.9844 42.3281 21.5 42.3281ZM21.5 5.375C12.6084 5.375 5.375 12.6091 5.375 21.5C5.375 30.3909 12.6084 37.625 21.5 37.625C30.3916 37.625 37.625 30.3909 37.625 21.5C37.625 12.6091 30.3916 5.375 21.5 5.375Z" fill="#B71C1C"/>
<path d="M32.7883 13.0337C32.4167 12.5399 32.0089 12.0655 31.5762 11.6227L30.6161 12.5634C31.0078 12.9631 31.3773 13.3925 31.7139 13.8399L32.7883 13.0337Z" fill="black"/>
<path d="M29.967 10.2125C27.5099 8.36619 24.5819 7.39062 21.5 7.39062V8.73438C24.2883 8.73438 26.9375 9.61655 29.16 11.2875L29.967 10.2125Z" fill="black"/>
<path d="M21.5 4.70312C12.2382 4.70312 4.70312 12.2382 4.70312 21.5C4.70312 30.7618 12.2382 38.2969 21.5 38.2969C30.7618 38.2969 38.2969 30.7618 38.2969 21.5C38.2969 12.2382 30.7618 4.70312 21.5 4.70312ZM36.5809 24.8594H31.2657C30.8465 24.8594 30.4332 24.9004 30.0301 24.979C30.1611 24.2802 30.2344 23.5667 30.2344 22.8438C30.2344 20.1999 29.3347 17.7147 27.7807 15.8562C32.1915 16.4092 35.4622 17.3727 36.4781 17.6958C36.7872 18.9133 36.9531 20.1878 36.9531 21.5C36.9531 22.6536 36.8221 23.777 36.5809 24.8594ZM21.5 6.04688C28.1381 6.04688 33.8108 10.2542 35.9944 16.1425C33.6247 15.4538 28.1516 14.1094 21.5 14.1094C14.8484 14.1094 9.37534 15.4538 7.00564 16.1425C9.18923 10.2542 14.8619 6.04688 21.5 6.04688ZM6.04688 21.5C6.04688 20.1878 6.21283 18.9133 6.52189 17.6958C7.53709 17.3727 10.8058 16.4085 15.22 15.8556C13.6653 17.714 12.7656 20.1993 12.7656 22.8438C12.7656 23.5667 12.8389 24.2802 12.9692 24.979C12.5667 24.9004 12.1535 24.8594 11.7336 24.8594H6.41909C6.17789 23.777 6.04688 22.6536 6.04688 21.5ZM6.78123 26.2031H11.7343C13.0868 26.2031 14.358 26.7299 15.3147 27.686C16.2701 28.6427 16.7969 29.9132 16.7969 31.2657V36.2188C12.0528 34.6997 8.30034 30.9472 6.78123 26.2031ZM18.1406 36.5809V31.2657C18.1406 29.5544 17.4741 27.946 16.2641 26.7359C15.732 26.2038 15.1185 25.7832 14.4567 25.4715C14.2303 24.6242 14.1094 23.7427 14.1094 22.8438C14.1094 19.9412 15.3208 17.2658 17.3485 15.6325C18.6654 15.521 20.0561 15.4531 21.5 15.4531C22.9439 15.4531 24.3353 15.5217 25.6535 15.6325C27.6799 17.2672 28.8906 19.9426 28.8906 22.8438C28.8906 23.7427 28.7697 24.6242 28.5426 25.4715C27.8808 25.7832 27.268 26.2031 26.7353 26.7359C25.5259 27.946 24.8594 29.5544 24.8594 31.2657V36.5809C23.777 36.8221 22.6536 36.9531 21.5 36.9531C20.3464 36.9531 19.223 36.8221 18.1406 36.5809ZM26.2031 36.2188V31.2657C26.2031 29.9132 26.7299 28.6427 27.686 27.686C28.642 26.7299 29.9139 26.2031 31.2664 26.2031H36.2194C34.6997 30.9472 30.9472 34.6997 26.2031 36.2188Z" fill="black"/>
<path d="M26.2031 21.5C26.2031 18.9072 24.0934 16.7969 21.5 16.7969C18.9066 16.7969 16.7969 18.9072 16.7969 21.5C16.7969 24.0928 18.9066 26.2031 21.5 26.2031C24.0934 26.2031 26.2031 24.0928 26.2031 21.5ZM18.1406 21.5C18.1406 19.6476 19.6476 18.1406 21.5 18.1406C23.3524 18.1406 24.8594 19.6476 24.8594 21.5C24.8594 23.3524 23.3524 24.8594 21.5 24.8594C19.6476 24.8594 18.1406 23.3524 18.1406 21.5Z" fill="black"/>
<path d="M34.2656 18.1406H32.9219C32.1808 18.1406 31.5781 18.7433 31.5781 19.4844V22.1719C31.5781 22.913 32.1808 23.5156 32.9219 23.5156H34.2656C35.0067 23.5156 35.6094 22.913 35.6094 22.1719V19.4844C35.6094 18.7433 35.0067 18.1406 34.2656 18.1406ZM32.9219 22.1719V19.4844H34.2656L34.2663 22.1719H32.9219Z" fill="black"/>
<path d="M10.0781 18.1406H8.73438C7.9933 18.1406 7.39062 18.7433 7.39062 19.4844V22.1719C7.39062 22.913 7.9933 23.5156 8.73438 23.5156H10.0781C10.8192 23.5156 11.4219 22.913 11.4219 22.1719V19.4844C11.4219 18.7433 10.8192 18.1406 10.0781 18.1406ZM8.73438 22.1719V19.4844H10.0781L10.0788 22.1719H8.73438Z" fill="black"/>
<path d="M19.4844 34.2656H23.5156V35.6094H19.4844V34.2656Z" fill="black"/>
<path d="M19.4844 31.5781H23.5156V32.9219H19.4844V31.5781Z" fill="black"/>
<path d="M19.4844 28.8906H23.5156V30.2344H19.4844V28.8906Z" fill="black"/>
</svg>
