<svg width="70" height="70" viewBox="0 0 70 70" fill="none" xmlns="http://www.w3.org/2000/svg">
    <path
        d="M68.871 42.9032H63.2258C60.7351 42.9032 58.7097 40.8778 58.7097 38.3871V37.2581H68.871V42.9032Z"
        fill="#B71C1C" />
    <path
        d="M1.12903 39.5354V45.0223C1.5265 45.1083 1.89807 45.1613 2.25806 45.1613C5.37062 45.1613 7.90322 42.6287 7.90322 39.5161C7.90322 37.6351 6.96934 35.9294 5.46654 34.8892L4.40532 35.1929C2.46589 35.7475 1.12903 37.5188 1.12903 39.5354Z"
        fill="#B71C1C" />
    <path d="M18.8005 51.9355H42.1662V54.1935H18.8005V51.9355Z" fill="black" />
    <path
        d="M44.8724 31.6129L43.1756 25.9551C42.3277 23.1303 40.0443 21.1026 37.2581 20.5144L35 20.3226H32.7419H30.4839H25.9677H23.7097H21.4516L19.1935 20.5392C16.2717 21.1197 13.7066 22.9428 12.2479 25.6188L8.26818 32.9156L4.09495 34.108C1.68362 34.7966 0 37.0287 0 39.5365V50.8064C0 52.6736 1.51989 54.1935 3.3871 54.1935H6.03933V51.9355H3.3871C2.76414 51.9355 2.25806 51.4294 2.25806 50.8064V49.6774H6.03933V47.4193H2.25806V39.5365C2.25806 38.0326 3.26857 36.6924 4.71459 36.279L9.79799 34.8274L14.2303 26.6993C15.6157 24.1579 18.2746 22.5806 21.1683 22.5806H35.6053C38.1175 22.5806 40.2896 24.1987 41.0123 26.6034L42.8332 32.6741L38.3871 43.0488V28.2258C38.3871 26.3586 36.8672 24.8387 35 24.8387H21.1594C19.5414 24.8387 18.0386 25.7103 17.2381 27.115L13.5484 33.5705V40.6451H14.6774C18.6505 40.6451 21.9395 43.5962 22.4902 47.4193H18.8005V49.6774H42.1662V47.4193H38.9698L42.8409 38.3871H67.7419V46.2903C67.7419 48.1575 66.222 49.6774 64.3548 49.6774H55.3226V51.9355H64.3548C67.4674 51.9355 70 49.4029 70 46.2903V31.6129H44.8724ZM29.3548 35H36.129V37.2581H31.6129V39.5161H36.129V47.4193H29.3548V35ZM36.129 28.2258V32.7419H29.3548V27.0968H35C35.623 27.0968 36.129 27.6028 36.129 28.2258ZM19.1991 28.2335C19.5987 27.5328 20.3507 27.0968 21.1594 27.0968H27.0968V32.7419H16.6229L19.1991 28.2335ZM15.8065 38.4505V35H27.0968V37.2581H22.5806V39.5161H27.0968V47.4193H24.7698C24.2472 42.7169 20.5089 38.972 15.8065 38.4505ZM43.8084 36.129L44.7765 33.871H67.7419V36.129H43.8084Z"
        fill="black" />
    <path
        d="M48.5484 58.7096C44.1916 58.7096 40.6451 55.1632 40.6451 50.8064C40.6451 46.4496 44.1916 42.9032 48.5484 42.9032C52.9052 42.9032 56.4516 46.4496 56.4516 50.8064C56.4516 55.1632 52.9052 58.7096 48.5484 58.7096ZM48.5484 48.5484C47.303 48.5484 46.2903 49.5611 46.2903 50.8064C46.2903 52.0518 47.303 53.0645 48.5484 53.0645C49.7937 53.0645 50.8064 52.0518 50.8064 50.8064C50.8064 49.5611 49.7937 48.5484 48.5484 48.5484Z"
        fill="#B71C1C" />
    <path
        d="M48.5484 54.1936C46.6811 54.1936 45.1613 52.6737 45.1613 50.8065C45.1613 48.9393 46.6811 47.4194 48.5484 47.4194C50.4156 47.4194 51.9355 48.9393 51.9355 50.8065C51.9355 52.6737 50.4156 54.1936 48.5484 54.1936ZM48.5484 49.6774C47.9254 49.6774 47.4193 50.1835 47.4193 50.8065C47.4193 51.4294 47.9254 51.9355 48.5484 51.9355C49.1713 51.9355 49.6774 51.4294 49.6774 50.8065C49.6774 50.1835 49.1713 49.6774 48.5484 49.6774Z"
        fill="black" />
    <path
        d="M12.4193 58.7096C8.06253 58.7096 4.51611 55.1632 4.51611 50.8064C4.51611 46.4496 8.06253 42.9032 12.4193 42.9032C16.7761 42.9032 20.3226 46.4496 20.3226 50.8064C20.3226 55.1632 16.7761 58.7096 12.4193 58.7096ZM12.4193 48.5484C11.174 48.5484 10.1613 49.5611 10.1613 50.8064C10.1613 52.0518 11.174 53.0645 12.4193 53.0645C13.6647 53.0645 14.6774 52.0518 14.6774 50.8064C14.6774 49.5611 13.6647 48.5484 12.4193 48.5484Z"
        fill="#B71C1C" />
    <path
        d="M12.4193 54.1936C10.5521 54.1936 9.03223 52.6737 9.03223 50.8065C9.03223 48.9393 10.5521 47.4194 12.4193 47.4194C14.2865 47.4194 15.8064 48.9393 15.8064 50.8065C15.8064 52.6737 14.2865 54.1936 12.4193 54.1936ZM12.4193 49.6774C11.7964 49.6774 11.2903 50.1835 11.2903 50.8065C11.2903 51.4294 11.7964 51.9355 12.4193 51.9355C13.0423 51.9355 13.5484 51.4294 13.5484 50.8065C13.5484 50.1835 13.0423 49.6774 12.4193 49.6774Z"
        fill="black" />
</svg>
