<svg width="100" height="100" viewBox="0 0 100 100" fill="none" xmlns="http://www.w3.org/2000/svg">
    <path
        d="M4.22964 97.9797L2.02026 95.7703L4.22964 93.5609L6.43901 95.7703L4.22964 97.9797ZM28.1234 96.6063C27.5531 96.6063 26.9859 96.525 26.4406 96.3656L27.3187 93.3656C27.9703 93.5594 28.675 93.5094 29.2953 93.2313L30.5734 96.0813C29.7968 96.4297 28.9734 96.6063 28.1234 96.6063ZM23.2484 94.2078L21.039 91.9984L23.2484 89.7891L25.4578 91.9984L23.2484 94.2078ZM8.64839 93.5609L6.43901 91.3516L8.64839 89.1422L10.8578 91.3516L8.64839 93.5609ZM33.5328 93.1859L30.7062 91.85C30.8843 91.4734 30.9796 91.0484 30.9812 90.625C30.9812 90.3766 30.9484 90.1234 30.8812 89.8766L33.8984 89.0625C34.0359 89.575 34.1062 90.1016 34.1062 90.6266C34.1046 91.5109 33.9046 92.3953 33.5328 93.1859ZM18.8296 89.7891L17.6453 88.6047C17.4218 88.3828 17.1656 88.1984 16.8843 88.0609L18.2671 85.2563C18.8531 85.5469 19.3875 85.9281 19.8546 86.3922L21.0406 87.5797L18.8296 89.7891ZM13.0687 89.1406L10.8593 86.9313L11.3953 86.3953C12.1562 85.6344 13.1078 85.0922 14.1453 84.8281L14.9171 87.8563C14.4234 87.9828 13.9703 88.2406 13.6046 88.6047L13.0687 89.1406ZM29.5625 88.0219L27.3531 85.8125L29.5625 83.6031L31.7718 85.8125L29.5625 88.0219ZM25.1421 83.6016L22.9328 81.3922L25.1421 79.1828L27.3515 81.3922L25.1421 83.6016ZM20.7234 79.1828L18.514 76.9734L20.7234 74.7641L22.9328 76.9734L20.7234 79.1828ZM16.3046 74.7641L14.0953 72.5547L16.3046 70.3453L18.514 72.5547L16.3046 74.7641ZM28.1234 71.6063C27.7593 71.6063 27.3937 71.5734 27.0343 71.5078L27.5953 68.4344C28.2687 68.5578 28.9671 68.4375 29.55 68.1L31.1125 70.8063C30.2062 71.3297 29.1718 71.6063 28.1234 71.6063ZM11.8843 70.3453L9.67339 68.1344L11.8828 65.925L14.0937 68.1359L11.8843 70.3453ZM23.564 69.5234L21.3546 67.3141L23.564 65.1047L25.7734 67.3141L23.564 69.5234ZM33.7437 68.4656L31.5343 66.2563L33.7437 64.0469L35.9531 66.2563L33.7437 68.4656ZM7.46401 65.9234L5.25464 63.7141L7.46401 61.5047L9.67339 63.7141L7.46401 65.9234ZM19.1453 65.1047L16.9343 62.8938L19.1437 60.6844L21.3546 62.8953L19.1453 65.1047ZM38.1625 64.0469L35.9531 61.8375L38.1625 59.6281L40.3718 61.8375L38.1625 64.0469ZM14.725 60.6844L12.5156 58.475L14.725 56.2656L16.9343 58.475L14.725 60.6844ZM3.4312 60.0484C3.4062 59.8297 3.39526 59.6125 3.3937 59.3906C3.3937 58.1781 3.74839 57.0188 4.41714 56.0297L7.00464 57.7813C6.68589 58.2516 6.51714 58.8031 6.51714 59.3766C6.5187 59.4766 6.52495 59.5922 6.53745 59.7063L3.4312 60.0484ZM10.5828 56.7875C9.97026 56.5031 9.25933 56.4438 8.60933 56.6234L7.77651 53.6109C9.13433 53.2375 10.6281 53.3594 11.9046 53.9563L10.5828 56.7875Z"
        fill="black" />
    <path
        d="M71.9156 53.1641L64.0625 45.3125L62.3953 45.55C62.4578 45.9844 62.5 46.4234 62.5 46.875C62.5 52.0531 58.3031 56.25 53.125 56.25C47.9469 56.25 43.75 52.0531 43.75 46.875C43.75 41.6969 47.9469 37.5 53.125 37.5C53.5766 37.5 54.0156 37.5422 54.45 37.6047L54.6875 35.9375L46.8359 28.0859L46.275 30.3359L42.9391 28.3359L34.5859 36.6891L36.5859 40.0266L32.8125 40.9672V52.7828L36.5859 53.725L34.5859 57.0625L42.9391 65.4156L46.2766 63.4156L47.2172 67.1875H59.0328L59.975 63.4141L63.3125 65.4141L71.6656 57.0609L69.6656 53.725L71.9156 53.1641Z"
        fill="#B71C1C" />
    <path
        d="M98.0858 4.11406L98.1077 4.08594L98.0421 4.03437C97.6202 3.11719 96.8827 2.37969 95.9655 1.95781L95.914 1.89219L95.8858 1.91406C95.3718 1.69063 94.8046 1.5625 94.2077 1.5625C93.7249 1.5625 93.253 1.64375 92.7999 1.80313L37.7671 21.2266L52.5093 35.9688C46.7655 36.2906 42.1874 41.0531 42.1874 46.875C42.1874 52.9047 47.0952 57.8125 53.1249 57.8125C58.9468 57.8125 63.7093 53.2344 64.0312 47.4906L78.7733 62.2328L98.1952 7.20156C98.3562 6.74844 98.4374 6.275 98.4374 5.79219C98.4374 5.19531 98.3093 4.62812 98.0858 4.11406ZM63.2171 43.8547L54.9671 45.0328L56.1452 36.7828L87.9671 12.0328L63.2171 43.8547ZM90.9077 5.78594L54.8171 33.8578L43.4827 22.5234L90.9077 5.78594ZM53.1249 54.6875C48.8171 54.6875 45.3124 51.1828 45.3124 46.875C45.3124 42.7281 48.5702 39.3578 52.6562 39.1094L51.2827 48.7156L60.8905 47.3438C60.6421 51.4297 57.2718 54.6875 53.1249 54.6875ZM77.4765 56.5172L66.1421 45.1828L94.214 9.09219L77.4765 56.5172Z"
        fill="black" />
</svg>
