<svg width="73" height="74" viewBox="0 0 73 74" fill="none" xmlns="http://www.w3.org/2000/svg">
    <path
        d="M17.6612 33.3305V28.6208H2.44792C1.64477 30.0081 1.17737 31.6127 1.17737 33.3305V38.0402H12.9516C15.5525 38.0402 17.6612 35.9314 17.6612 33.3305Z"
        fill="#B71C1C" />
    <path d="M23.5483 50.9918H38.8548V53.3467H23.5483V50.9918Z" fill="black" />
    <path
        d="M73 41.5724V13.3144H25.9032V41.5724H30.6129V43.9273H23.5484V26.266C23.5484 24.3188 21.9634 22.7337 20.0161 22.7337H10.5968C4.75452 22.7337 0 27.4883 0 33.3305V47.4595C0 50.7055 2.64114 53.3466 5.8871 53.3466H9.41935V50.9918H5.8871C3.93987 50.9918 2.35484 49.4068 2.35484 47.4595V46.2821H69.4677C70.1162 46.2821 70.6452 46.8099 70.6452 47.4595V49.8144C70.6452 50.464 70.1162 50.9918 69.4677 50.9918H67.1129V53.3466H69.4677C71.415 53.3466 73 51.7616 73 49.8144V47.4595C73 45.5123 71.415 43.9273 69.4677 43.9273H68.2903V41.5724H73ZM28.2581 15.6692H70.6452V39.2176H28.2581V15.6692ZM2.35484 33.3305C2.35484 28.7858 6.0521 25.0886 10.5968 25.0886H20.0161C20.6646 25.0886 21.1935 25.6175 21.1935 26.266V43.9273H2.35484V33.3305ZM65.9355 43.9273H32.9677V41.5724H65.9355V43.9273Z"
        fill="black" />
    <path d="M30.6129 34.5079H32.9678V36.8628H30.6129V34.5079Z" fill="black" />
    <path d="M30.6129 22.7338H32.9678V32.1531H30.6129V22.7338Z" fill="black" />
    <path d="M30.6129 18.0241H32.9678V20.379H30.6129V18.0241Z" fill="black" />
    <path d="M37.6774 34.5079H40.0322V36.8628H37.6774V34.5079Z" fill="black" />
    <path d="M37.6774 22.7338H40.0322V32.1531H37.6774V22.7338Z" fill="black" />
    <path d="M37.6774 18.0241H40.0322V20.379H37.6774V18.0241Z" fill="black" />
    <path d="M44.7419 34.5079H47.0968V36.8628H44.7419V34.5079Z" fill="black" />
    <path d="M44.7419 22.7338H47.0968V32.1531H44.7419V22.7338Z" fill="black" />
    <path d="M44.7419 18.0241H47.0968V20.379H44.7419V18.0241Z" fill="black" />
    <path d="M51.8064 34.5079H54.1612V36.8628H51.8064V34.5079Z" fill="black" />
    <path d="M51.8064 22.7338H54.1612V32.1531H51.8064V22.7338Z" fill="black" />
    <path d="M51.8064 18.0241H54.1612V20.379H51.8064V18.0241Z" fill="black" />
    <path d="M58.871 34.5079H61.2258V36.8628H58.871V34.5079Z" fill="black" />
    <path d="M58.871 22.7338H61.2258V32.1531H58.871V22.7338Z" fill="black" />
    <path d="M58.871 18.0241H61.2258V20.379H58.871V18.0241Z" fill="black" />
    <path d="M65.9354 34.5079H68.2903V36.8628H65.9354V34.5079Z" fill="black" />
    <path d="M65.9354 22.7338H68.2903V32.1531H65.9354V22.7338Z" fill="black" />
    <path d="M65.9354 18.0241H68.2903V20.379H65.9354V18.0241Z" fill="black" />
    <path
        d="M16.4839 60.4112C11.9392 60.4112 8.24194 56.7128 8.24194 52.1692C8.24194 47.6257 11.9392 43.9273 16.4839 43.9273C21.0286 43.9273 24.7258 47.6257 24.7258 52.1692C24.7258 56.7128 21.0286 60.4112 16.4839 60.4112ZM16.4839 49.8144C15.1852 49.8144 14.129 50.8705 14.129 52.1692C14.129 53.468 15.1852 54.5241 16.4839 54.5241C17.7826 54.5241 18.8387 53.468 18.8387 52.1692C18.8387 50.8705 17.7826 49.8144 16.4839 49.8144Z"
        fill="#B71C1C" />
    <path
        d="M45.9193 60.4112C41.3746 60.4112 37.6774 56.7128 37.6774 52.1692C37.6774 47.6257 41.3746 43.9273 45.9193 43.9273C50.464 43.9273 54.1612 47.6257 54.1612 52.1692C54.1612 56.7128 50.464 60.4112 45.9193 60.4112ZM45.9193 49.8144C44.6206 49.8144 43.5645 50.8705 43.5645 52.1692C43.5645 53.468 44.6206 54.5241 45.9193 54.5241C47.218 54.5241 48.2741 53.468 48.2741 52.1692C48.2741 50.8705 47.218 49.8144 45.9193 49.8144Z"
        fill="#B71C1C" />
    <path
        d="M60.0483 60.4112C55.5037 60.4112 51.8064 56.7128 51.8064 52.1692C51.8064 47.6257 55.5037 43.9273 60.0483 43.9273C64.593 43.9273 68.2903 47.6257 68.2903 52.1692C68.2903 56.7128 64.593 60.4112 60.0483 60.4112ZM60.0483 49.8144C58.7496 49.8144 57.6935 50.8705 57.6935 52.1692C57.6935 53.468 58.7496 54.5241 60.0483 54.5241C61.3471 54.5241 62.4032 53.468 62.4032 52.1692C62.4032 50.8705 61.3471 49.8144 60.0483 49.8144Z"
        fill="#B71C1C" />
    <path
        d="M16.4839 55.7015C14.5367 55.7015 12.9517 54.1164 12.9517 52.1692C12.9517 50.222 14.5367 48.637 16.4839 48.637C18.4311 48.637 20.0162 50.222 20.0162 52.1692C20.0162 54.1164 18.4311 55.7015 16.4839 55.7015ZM16.4839 50.9918C15.8354 50.9918 15.3065 51.5196 15.3065 52.1692C15.3065 52.8189 15.8354 53.3466 16.4839 53.3466C17.1324 53.3466 17.6613 52.8189 17.6613 52.1692C17.6613 51.5196 17.1324 50.9918 16.4839 50.9918Z"
        fill="black" />
    <path
        d="M45.9193 55.7015C43.9721 55.7015 42.3871 54.1164 42.3871 52.1692C42.3871 50.222 43.9721 48.637 45.9193 48.637C47.8666 48.637 49.4516 50.222 49.4516 52.1692C49.4516 54.1164 47.8666 55.7015 45.9193 55.7015ZM45.9193 50.9918C45.2708 50.9918 44.7419 51.5196 44.7419 52.1692C44.7419 52.8189 45.2708 53.3466 45.9193 53.3466C46.5678 53.3466 47.0968 52.8189 47.0968 52.1692C47.0968 51.5196 46.5678 50.9918 45.9193 50.9918Z"
        fill="black" />
    <path
        d="M60.0484 55.7015C58.1011 55.7015 56.5161 54.1164 56.5161 52.1692C56.5161 50.222 58.1011 48.637 60.0484 48.637C61.9956 48.637 63.5806 50.222 63.5806 52.1692C63.5806 54.1164 61.9956 55.7015 60.0484 55.7015ZM60.0484 50.9918C59.3999 50.9918 58.871 51.5196 58.871 52.1692C58.871 52.8189 59.3999 53.3466 60.0484 53.3466C60.6969 53.3466 61.2258 52.8189 61.2258 52.1692C61.2258 51.5196 60.6969 50.9918 60.0484 50.9918Z"
        fill="black" />
</svg>
